<svg version="1.1" id="Layer_1" xmlns:x="ns_extend;" xmlns:i="ns_ai;" xmlns:graph="ns_graphs;" xmlns="http://www.w3.org/2000/svg" xmlns:xlink="http://www.w3.org/1999/xlink" x="0px" y="0px" viewBox="0 0 371.4 77" style="enable-background:new 0 0 371.4 77;" xml:space="preserve">
 <style type="text/css">
  .st0{fill-rule:evenodd;clip-rule:evenodd;}
 </style>
 <metadata>
  <sfw xmlns="ns_sfw;">
   <slices>
   </slices>
   <sliceSourceBounds bottomLeftOrigin="true" height="77" width="371.4" x="14.6" y="-238.7">
   </sliceSourceBounds>
  </sfw>
 </metadata>
 <g>
  <path class="st0" d="M0,38.5C0,15.9,9.9,0,24.2,0c3.6,0,6.1,1.2,8.1,2.1c1.3,0.6,2.4,1.1,3.4,1.1c1.6,0,2.7-0.9,3-2h2.6v19.2h-2.7
		c-0.1-5.4-8-16.1-15.2-16.1c-8.4,0-13.4,9.1-13.4,25.2c0,24.9,6.7,42,16.1,42c3.5,0,6.3-2.1,8.1-5.8V41.7c0-1.1-2.4-3.8-3.2-3.8
		h-3.3v-2.7h21.9v2.7h-2.3c-1,0-3.3,2.7-3.3,3.8V76h-0.5l-6.2-5.7C34,74.5,29.4,77,23.7,77C9.7,77,0,61.2,0,38.5z M52.6,49.5
		c0-16.1,8.1-27.5,19.6-27.5c11.5,0,19.6,11.4,19.6,27.5c0,16.1-8.1,27.5-19.6,27.5C60.7,77,52.6,65.6,52.6,49.5z M83.2,58.2
		c0-18-5.9-31.7-13.4-31.7c-5.2,0-8.6,5.3-8.6,14.2c0,17.8,5.9,31.7,13.4,31.7C79.8,72.4,83.2,67.1,83.2,58.2z M110.8,77
		c4.7,0,8.6-4.5,12.5-10.7l-2.1-1.3c-2.6,3.5-5,5.5-6.7,5.5c-3.1,0-5-3-5-5.2V28.4h11.9v-3.8h-12.3v-15h-2.4
		c-0.1,2.5-8.6,15-10.8,15h-3.3v3.6h7.5v38.2C100,72.5,104.2,77,110.8,77z M138.3,30.9c4.6-4.7,9.9-9.1,15.4-9.1
		c6.7,0,11.6,6.5,11.6,12.3v35.5c0,1.1,2.2,3.7,3,3.7h2.3V76h-20v-2.6h2.2c0.8,0,3.1-2.6,3.1-3.7v-35c0-3.1-2.8-6.1-5.5-6.1
		c-3.7,0-8.4,3.3-12,7.3v33.8c0,1.1,2.3,3.7,3.1,3.7h2V76h-19.6v-2.6h2c0.8,0,3.1-2.6,3.1-3.7V9.4c0-1.6-2.9-4.3-4-4.3h-2.1V2.6
		c5.4-0.1,11.3-1.1,15-2.6h0.5V30.9z M196.8,38.8c-15.8,7.3-23.7,13.3-23.7,24.1c0,8.5,4.8,14.1,12.1,14.1c4.4,0,8.4-3.2,12.1-6.7
		c1.1,3.6,4.3,6.3,7.7,6.3s6.4-3.4,9.4-10.5l-2.2-1c-1.3,2.6-2.7,4.4-3.8,4.4c-1.1,0-2.3-1.5-2.3-3v-29c0-9.8-5.3-15.5-14.5-15.5
		c-10.3,0-18.1,6.1-18.1,13.1c0,2.1,1.3,3.2,3.7,3.2c3.5,0,6.2-1.8,6.2-4.2c0-0.5-0.1-1.3-0.1-2v0l0,0c-0.1-0.7-0.1-1.4-0.1-1.8
		c0-2.3,1.8-4.4,5.5-4.4c4.7,0,7.9,3.8,7.9,9.5V38.8z M196.8,66.1c-2.6,2.7-5,4.5-7.6,4.5c-4.2,0-7.1-4.8-7.1-11.3
		c0-8,5.6-12,14.6-16.7V66.1z M196.8,66.7v0.2l-0.2-0.2H196.8z M234.5,76h-19.6v-2.6h2c0.8,0,3.1-2.6,3.1-3.7v-37
		c0-1.6-2.9-4.3-4-4.3h-2.1v-2.6c2.7-0.2,9.5-2.3,12.6-3.7h0.5l2.2,8.1c4.4-4.4,9-8.3,14.1-8.3c5.6,0,9.1,3.7,10.3,8.4
		c4.3-4.4,9-8.4,14.1-8.4c6.7,0,10.6,5.5,10.6,11.3v36.5c0,1.1,2.3,3.7,3.1,3.7h2V76h-19.6v-2.6h2c0.8,0,3.1-2.6,3.1-3.7v-36
		c0-3.1-1.8-5.1-4.5-5.1c-3.2,0-7.1,2.8-10.5,6.2v34.9c0,1.1,2.3,3.7,3.1,3.7h2V76h-19.6v-2.6h2c0.8,0,3.1-2.6,3.1-3.7v-36
		c0-3.1-1.8-5.1-4.5-5.1c-3.2,0-7.1,2.8-10.5,6.2v34.9c0,1.1,2.3,3.7,3.1,3.7h2V76z M300.5,69.6V22H300c-3.1,1.5-12.7,3.5-15.6,3.7
		v2.6h2.6c1.1,0,4,2.7,4,4.3v37c0,1.1-2.3,3.7-3.1,3.7h-2.5V76h20.7v-2.6h-2.5C302.8,73.4,300.5,70.8,300.5,69.6z M288.9,9.2
		c0,3.6,2.9,6.3,6.3,6.3c3.4,0,6.3-2.7,6.3-6.3s-2.9-6.3-6.3-6.3C291.8,2.9,288.9,5.6,288.9,9.2z M310.5,76V58.6h2.5
		c0.4,3.7,6.4,14,13.6,14c4,0,7.1-3.2,7.1-8.2c0-3.9-2.3-6.7-5.9-9.2l-10.8-7.4c-5.1-3.4-7.3-7.2-7.3-11.7c0-8.3,6.1-13.6,13.4-13.6
		c3.4,0,5.7,1,7.4,1.8c1.1,0.5,1.9,0.8,2.7,0.8c0.8,0,1.8-0.7,2.1-1.7h2.1v15H335c-0.4-3.2-6.1-12.1-12.1-12.1
		c-3.3,0-5.7,2.1-5.7,5.4c0,3.3,2.5,5.8,5.8,8.1l10.8,7.5c5.2,3.6,7.6,7.8,7.6,13c0,9.8-6.6,16.2-15.4,16.2c-3.3,0-5.7-1.1-7.6-1.9
		c-1.1-0.5-2-0.9-2.8-0.9c-1.2,0-2.4,1-2.8,2.3H310.5z M358.9,77c4.7,0,8.6-4.5,12.5-10.7l-2.1-1.3c-2.6,3.5-5,5.5-6.7,5.5
		c-3.1,0-5-3-5-5.2V28.4h11.9v-3.8h-12.3v-15h-2.4c-0.1,2.5-8.6,15-10.8,15h-3.3v3.6h7.5v38.2C348.2,72.5,352.3,77,358.9,77z">
  </path>
 </g>
</svg>