<?xml version="1.0" encoding="UTF-8"?>
<svg xmlns="http://www.w3.org/2000/svg" xmlns:xlink="http://www.w3.org/1999/xlink" width="1012.5pt" height="487.499991pt" viewBox="0 0 1012.5 487.499991" version="1.2">
<defs>
<clipPath id="clip1">
  <path d="M 723.996094 107.214844 L 804.203125 107.214844 L 804.203125 224.429688 L 723.996094 224.429688 Z M 723.996094 107.214844 "/>
</clipPath>
<clipPath id="clip2">
  <path d="M 728 207 L 800 207 L 800 224.867188 L 728 224.867188 Z M 728 207 "/>
</clipPath>
<clipPath id="clip3">
  <path d="M 278.847656 115.542969 L 381.542969 115.542969 L 381.542969 219.734375 L 278.847656 219.734375 Z M 278.847656 115.542969 "/>
</clipPath>
<clipPath id="clip4">
  <path d="M 315 194 L 360 194 L 360 219.734375 L 315 219.734375 Z M 315 194 "/>
</clipPath>
</defs>
<g id="surface1">
<g clip-path="url(#clip1)" clip-rule="nonzero">
<path style=" stroke:none;fill-rule:nonzero;fill:rgb(94.119263%,90.589905%,30.979919%);fill-opacity:1;" d="M 802.496094 107.421875 L 725.832031 107.214844 L 723.996094 109.957031 L 727.453125 117.835938 L 727.453125 222.347656 L 729.523438 224.429688 L 798.800781 224.429688 L 800.59375 222.347656 L 800.59375 117.980469 L 804.214844 110.175781 L 802.496094 107.421875 "/>
</g>
<path style=" stroke:none;fill-rule:nonzero;fill:rgb(32.548523%,56.079102%,69.799805%);fill-opacity:1;" d="M 729.742188 117.832031 L 751.546875 117.832031 L 751.546875 131.714844 L 729.742188 131.714844 L 729.742188 117.832031 "/>
<path style=" stroke:none;fill-rule:nonzero;fill:rgb(32.548523%,56.079102%,69.799805%);fill-opacity:1;" d="M 753.480469 117.832031 L 774.734375 117.832031 L 774.734375 131.714844 L 753.480469 131.714844 L 753.480469 117.832031 "/>
<path style=" stroke:none;fill-rule:nonzero;fill:rgb(32.548523%,56.079102%,69.799805%);fill-opacity:1;" d="M 776.664062 117.832031 L 798.46875 117.832031 L 798.46875 131.714844 L 776.664062 131.714844 L 776.664062 117.832031 "/>
<path style=" stroke:none;fill-rule:nonzero;fill:rgb(32.548523%,56.079102%,69.799805%);fill-opacity:1;" d="M 727.535156 112.003906 L 800.402344 112.003906 L 800.402344 113.113281 L 727.535156 113.113281 L 727.535156 112.003906 "/>
<path style=" stroke:none;fill-rule:nonzero;fill:rgb(32.548523%,56.079102%,69.799805%);fill-opacity:1;" d="M 755.472656 176.464844 C 756.875 177.144531 758.085938 178.203125 759.574219 178.699219 C 759.691406 178.738281 759.746094 178.574219 759.652344 178.511719 C 758.488281 177.730469 757.230469 177.050781 756.015625 176.351562 C 754.777344 175.636719 753.421875 175.242188 752.28125 174.339844 C 752.117188 174.210938 751.882812 174.441406 752.050781 174.574219 C 753.085938 175.402344 754.289062 175.886719 755.472656 176.464844 "/>
<path style=" stroke:none;fill-rule:nonzero;fill:rgb(32.548523%,56.079102%,69.799805%);fill-opacity:1;" d="M 747.488281 169.777344 L 748.136719 169.398438 C 751.148438 165.453125 757.519531 165.621094 761.945312 168.8125 C 765.164062 171.085938 765.925781 173.753906 766.035156 176.886719 C 766.082031 178.289062 765.996094 179.785156 765.941406 181.378906 C 765.890625 182.910156 764.15625 189.042969 762.339844 188.804688 C 761.898438 187.800781 761.550781 186.855469 761.320312 186.171875 C 761.4375 185.617188 761.460938 185.027344 761.421875 184.222656 C 762.070312 183.230469 762.890625 181.402344 761.695312 180.746094 C 761.015625 180.375 760.582031 180.691406 760.316406 181.398438 C 760.191406 181.085938 760.089844 180.804688 760.042969 180.707031 C 759.6875 180.019531 759.265625 179.046875 758.515625 178.671875 C 758.496094 178.671875 758.476562 178.675781 758.457031 178.675781 C 758.507812 178.617188 758.480469 178.511719 758.378906 178.5 C 756.542969 178.289062 754.996094 177.9375 753.339844 177.085938 C 752.023438 176.402344 750.328125 175.535156 749.726562 174.101562 C 749.652344 173.921875 749.355469 173.996094 749.429688 174.183594 C 749.996094 175.582031 751.375 176.363281 752.613281 177.085938 C 753.207031 177.433594 753.824219 177.757812 754.457031 178.03125 C 754.285156 177.976562 754.183594 177.945312 754.183594 177.945312 C 753.632812 178.125 753.113281 178.214844 752.597656 178.195312 C 752.746094 178.1875 752.890625 178.167969 753.03125 178.132812 C 753.148438 178.105469 753.105469 177.949219 753.003906 177.9375 C 750.816406 177.644531 747.679688 176.203125 747.832031 173.53125 C 747.839844 173.359375 747.582031 173.363281 747.570312 173.53125 C 747.550781 173.746094 747.5625 173.964844 747.597656 174.179688 C 747.5 173.769531 747.464844 173.386719 747.460938 173.070312 C 745.394531 175.121094 745.152344 178.507812 745.570312 181.640625 C 745.480469 181.730469 745.40625 181.828125 745.355469 181.945312 C 745.300781 182.070312 745.359375 182.238281 745.519531 182.234375 C 745.566406 182.230469 745.609375 182.226562 745.652344 182.21875 C 745.707031 182.5625 745.769531 182.898438 745.835938 183.230469 C 745.871094 183.402344 745.90625 183.574219 745.945312 183.746094 C 745.941406 183.761719 745.941406 183.777344 745.9375 183.796875 C 743.953125 179.308594 742.9375 173.097656 747.488281 169.777344 Z M 766.464844 172.738281 C 767.183594 172.960938 767.871094 173.265625 768.570312 173.539062 C 769.011719 173.710938 769.457031 173.871094 769.917969 173.984375 C 769.941406 173.992188 769.933594 174.027344 769.910156 174.023438 C 769.445312 173.925781 769.003906 173.777344 768.566406 173.609375 C 767.859375 173.335938 767.171875 173.015625 766.453125 172.78125 C 766.425781 172.773438 766.4375 172.730469 766.464844 172.738281 Z M 767.871094 171.027344 C 768.113281 171.472656 768.449219 171.84375 768.835938 172.167969 C 769.433594 172.671875 770.152344 173.0625 770.808594 173.449219 C 770.824219 173.457031 770.808594 173.480469 770.792969 173.472656 C 770.132812 173.144531 769.417969 172.738281 768.820312 172.222656 C 768.421875 171.878906 768.074219 171.492188 767.835938 171.046875 C 767.824219 171.023438 767.859375 171.003906 767.871094 171.027344 Z M 769.203125 167.167969 C 769.554688 167.035156 769.976562 167.691406 770.140625 167.90625 C 770.328125 168.148438 770.507812 168.394531 770.691406 168.644531 C 770.8125 168.8125 770.988281 168.980469 771.070312 169.175781 C 771.085938 169.210938 771.042969 169.25 771.007812 169.238281 C 770.683594 169.113281 770.429688 168.5625 770.238281 168.292969 C 770.007812 167.972656 769.644531 167.320312 769.203125 167.257812 C 769.152344 167.25 769.164062 167.179688 769.203125 167.167969 Z M 771.339844 172.570312 C 772.113281 172.285156 773.230469 172.820312 773.597656 173.535156 C 773.636719 173.613281 773.535156 173.671875 773.488281 173.601562 C 773.003906 172.902344 772.183594 172.578125 771.351562 172.667969 C 771.292969 172.671875 771.289062 172.585938 771.339844 172.570312 Z M 773.65625 176.023438 C 773.933594 176.355469 774.601562 176.394531 774.875 176.023438 C 774.839844 175.957031 774.84375 175.871094 774.84375 175.792969 C 774.847656 175.65625 774.863281 175.523438 774.875 175.390625 C 774.875 175.382812 774.878906 175.382812 774.878906 175.378906 C 774.660156 175.324219 774.164062 174.789062 774.148438 174.648438 C 774.132812 174.496094 774.871094 174.558594 775.683594 174.550781 C 775.867188 174.546875 775.195312 175.300781 774.953125 175.378906 C 774.953125 175.382812 774.957031 175.386719 774.957031 175.390625 C 774.972656 175.523438 774.992188 175.660156 775 175.792969 C 775 175.871094 775.015625 175.953125 774.988281 176.023438 C 774.988281 176.023438 774.988281 176.023438 774.988281 176.027344 C 775.265625 176.441406 775.863281 176.078125 776.109375 175.796875 C 776.15625 175.746094 776.238281 175.8125 776.203125 175.871094 C 775.972656 176.257812 775.179688 176.652344 774.90625 176.132812 C 774.613281 176.527344 773.878906 176.449219 773.589844 176.089844 C 773.550781 176.042969 773.613281 175.976562 773.65625 176.023438 Z M 776.332031 173.535156 C 776.699219 172.820312 777.816406 172.285156 778.589844 172.570312 C 778.640625 172.585938 778.636719 172.671875 778.578125 172.667969 C 777.746094 172.578125 776.925781 172.902344 776.441406 173.601562 C 776.394531 173.671875 776.292969 173.613281 776.332031 173.535156 Z M 777.667969 169.136719 C 777.9375 168.433594 778.507812 167.539062 779.171875 167.160156 C 779.21875 167.132812 779.292969 167.191406 779.253906 167.242188 C 779.011719 167.566406 778.707031 167.835938 778.472656 168.167969 C 778.234375 168.5 778.050781 168.867188 777.8125 169.195312 C 777.761719 169.261719 777.636719 169.226562 777.667969 169.136719 Z M 783.25 170.929688 C 783.265625 170.914062 783.285156 170.9375 783.273438 170.953125 C 782.542969 171.761719 781.734375 172.542969 780.828125 173.171875 C 780.28125 173.550781 779.699219 173.875 779.082031 174.117188 C 779.058594 174.125 779.050781 174.089844 779.070312 174.082031 C 779.703125 173.832031 780.28125 173.5 780.828125 173.113281 C 781.714844 172.484375 782.5 171.714844 783.25 170.929688 Z M 782.730469 173.890625 C 782.023438 174.296875 781.300781 174.714844 780.53125 174.96875 C 780.105469 175.109375 779.664062 175.199219 779.203125 175.207031 C 779.175781 175.207031 779.175781 175.160156 779.203125 175.160156 C 779.675781 175.15625 780.125 175.058594 780.554688 174.910156 C 781.304688 174.652344 782.003906 174.238281 782.714844 173.859375 C 782.734375 173.851562 782.75 173.878906 782.730469 173.890625 Z M 779.207031 194.507812 C 779.164062 194.570312 779.042969 194.53125 779.078125 194.453125 C 779.285156 193.929688 779.175781 193.273438 778.820312 192.832031 C 778.777344 192.777344 778.851562 192.695312 778.902344 192.753906 C 779.273438 193.179688 779.546875 193.996094 779.207031 194.507812 Z M 772.597656 177.816406 C 772.839844 177.917969 773.058594 177.996094 773.246094 178.039062 C 775.28125 178.589844 777.273438 178.316406 778.898438 176.953125 C 779.0625 177.054688 778.300781 178.015625 778.21875 178.09375 C 776.699219 179.503906 774.296875 178.789062 772.597656 177.816406 Z M 777.5625 194.796875 C 777.515625 194.828125 777.476562 194.761719 777.507812 194.722656 C 777.890625 194.269531 777.636719 193.441406 777.246094 193.054688 C 777.191406 193.003906 777.273438 192.925781 777.328125 192.972656 C 777.765625 193.34375 778.136719 194.386719 777.5625 194.796875 Z M 771.679688 187.671875 C 771.648438 189.210938 771.546875 190.746094 771.789062 192.277344 C 771.796875 192.300781 771.757812 192.3125 771.75 192.289062 C 771.394531 190.722656 771.582031 189.039062 771.621094 187.445312 C 771.660156 186.023438 771.722656 184.5625 772.289062 183.238281 C 772.296875 183.21875 772.332031 183.230469 772.324219 183.25 C 771.769531 184.660156 771.707031 186.171875 771.679688 187.671875 Z M 771.859375 192.4375 C 771.9375 192.4375 771.988281 192.46875 772.027344 192.539062 C 772.042969 192.566406 772.007812 192.585938 771.988281 192.5625 C 771.953125 192.515625 771.90625 192.488281 771.851562 192.484375 C 771.824219 192.480469 771.832031 192.433594 771.859375 192.4375 Z M 771.988281 194.914062 C 771.960938 194.972656 771.863281 194.945312 771.871094 194.882812 C 771.933594 194.324219 772.019531 193.667969 771.5 193.28125 C 771.445312 193.242188 771.492188 193.152344 771.550781 193.191406 C 772.0625 193.523438 772.246094 194.367188 771.988281 194.914062 Z M 770.5 194.972656 C 770.46875 195.023438 770.390625 194.988281 770.40625 194.933594 C 770.554688 194.3125 770.316406 193.738281 769.921875 193.265625 C 769.886719 193.226562 769.941406 193.167969 769.980469 193.207031 C 770.390625 193.648438 770.816406 194.371094 770.5 194.972656 Z M 729.46875 222.488281 L 798.746094 222.488281 L 798.746094 133.933594 L 729.46875 133.933594 L 729.46875 222.488281 "/>
<path style=" stroke:none;fill-rule:nonzero;fill:rgb(84.309387%,84.309387%,84.309387%);fill-opacity:1;" d="M 796.167969 205.105469 C 791.570312 200.527344 784.90625 194.554688 781.101562 194.089844 C 780.742188 194.046875 780.359375 194.007812 779.953125 193.976562 C 779.890625 194.507812 779.421875 194.9375 778.234375 195.035156 C 776.777344 195.15625 776.109375 194.722656 775.738281 193.804688 C 774.695312 193.789062 773.691406 193.792969 772.828125 193.800781 C 772.835938 193.835938 772.847656 193.871094 772.855469 193.910156 C 773.019531 194.691406 772.648438 195.378906 771.0625 195.367188 C 770.191406 195.363281 769.617188 195.1875 769.234375 194.847656 L 769.054688 194.65625 C 768.886719 194.449219 768.761719 194.199219 768.671875 193.898438 L 766.195312 194.035156 C 766.195312 194.035156 763.421875 199.222656 759.027344 199.386719 C 753.5625 199.585938 753.949219 195.523438 753.953125 195.515625 C 753.238281 195.632812 752.488281 195.761719 751.457031 196.070312 L 740.953125 198.753906 C 740.953125 198.753906 740.21875 199.25 739.839844 199.527344 C 735.957031 202.367188 731.265625 207.144531 729.53125 208.742188 C 729.046875 209.1875 729.371094 209.800781 730.207031 210.488281 C 733.503906 213.195312 744.707031 218.082031 745.367188 217.195312 C 747.179688 217.828125 749.289062 218.503906 750.96875 218.875 C 751.019531 218.324219 751.179688 218.113281 751.179688 218.113281 C 751.179688 218.113281 751.261719 217.808594 751.304688 217.671875 C 751.707031 216.457031 752.824219 215.433594 754.019531 215.28125 C 754.902344 215.167969 755.695312 215.230469 756.503906 215.621094 C 757.269531 215.988281 757.980469 216.453125 758.695312 216.90625 C 758.898438 217.035156 759.101562 217.164062 759.308594 217.292969 C 759.449219 217.378906 759.707031 217.609375 759.867188 217.625 C 764.78125 218.15625 769.226562 218.722656 774.398438 218.035156 C 777.652344 217.726562 785.527344 214.417969 785.527344 214.417969 L 785.519531 214.414062 C 787.847656 214.222656 793.859375 209.957031 795.949219 207.6875 C 796.757812 206.808594 796.980469 205.910156 796.167969 205.105469 "/>
<path style=" stroke:none;fill-rule:nonzero;fill:rgb(93.728638%,19.219971%,25.489807%);fill-opacity:1;" d="M 772.828125 193.800781 C 773.691406 193.789062 774.695312 193.789062 775.738281 193.804688 C 775.605469 193.484375 775.257812 190.40625 775.097656 189.550781 C 775.019531 189.648438 774.941406 189.746094 774.863281 189.839844 C 774.128906 190.703125 772.738281 192.097656 771.808594 192.644531 C 772.019531 192.882812 772.691406 193.28125 772.828125 193.800781 "/>
<path style=" stroke:none;fill-rule:nonzero;fill:rgb(93.728638%,19.219971%,25.489807%);fill-opacity:1;" d="M 745.652344 182.21875 C 745.707031 182.5625 745.769531 182.898438 745.835938 183.230469 C 745.871094 183.402344 745.90625 183.574219 745.945312 183.746094 L 745.988281 183.925781 C 746.113281 184.46875 746.25 184.988281 746.394531 185.476562 C 746.609375 186.210938 746.582031 186.832031 746.734375 187.402344 C 747.144531 188.910156 748.257812 190.480469 750.109375 192.179688 C 750.148438 192.214844 750.1875 192.253906 750.230469 192.289062 C 751.675781 193.597656 752.179688 194.414062 753.488281 194.136719 C 754.796875 193.855469 753.953125 195.515625 753.953125 195.515625 C 753.949219 195.519531 753.929688 195.757812 753.972656 196.113281 C 754.105469 197.238281 754.882812 199.539062 759.027344 199.382812 C 763.421875 199.222656 766.195312 194.03125 766.195312 194.03125 C 764.59375 193.257812 763.257812 190.902344 762.339844 188.804688 C 761.898438 187.800781 761.550781 186.855469 761.320312 186.171875 C 761.4375 185.617188 761.460938 185.027344 761.421875 184.222656 C 762.070312 183.230469 762.890625 181.402344 761.695312 180.746094 C 761.015625 180.375 760.582031 180.691406 760.316406 181.394531 C 760.191406 181.085938 760.089844 180.804688 760.042969 180.707031 C 759.6875 180.019531 759.265625 179.046875 758.515625 178.671875 C 758.496094 178.671875 758.476562 178.671875 758.457031 178.675781 C 758.441406 178.695312 758.414062 178.714844 758.375 178.71875 C 757.679688 178.800781 757.148438 178.421875 756.480469 178.289062 C 755.84375 178.160156 755.0625 178.289062 754.457031 178.03125 C 754.285156 177.976562 754.179688 177.945312 754.179688 177.945312 C 753.632812 178.125 753.113281 178.214844 752.597656 178.195312 C 751.820312 178.246094 751.105469 177.738281 750.332031 177.289062 C 749.03125 176.535156 747.804688 175.488281 747.597656 174.179688 C 747.5 173.769531 747.464844 173.386719 747.460938 173.070312 C 745.394531 175.121094 745.152344 178.507812 745.570312 181.640625 L 745.652344 182.21875 "/>
<g clip-path="url(#clip2)" clip-rule="nonzero">
<path style=" stroke:none;fill-rule:nonzero;fill:rgb(93.728638%,19.219971%,25.489807%);fill-opacity:1;" d="M 797.527344 210.460938 L 795.949219 207.6875 C 793.859375 209.957031 787.847656 212.109375 785.519531 212.300781 L 785.527344 212.304688 C 785.527344 212.304688 777.652344 215.613281 774.398438 215.921875 C 769.226562 216.609375 764.78125 217.5625 759.867188 217.03125 C 759.707031 217.015625 759.449219 216.78125 759.308594 216.695312 C 759.101562 216.570312 758.898438 216.441406 758.695312 216.3125 C 757.980469 215.855469 757.269531 215.390625 756.503906 215.023438 C 755.695312 214.636719 754.902344 214.574219 754.019531 214.6875 C 752.824219 214.839844 751.707031 215.402344 751.304688 216.617188 C 751.261719 216.753906 751.179688 217.058594 751.179688 217.058594 C 751.179688 217.058594 751.019531 217.269531 750.96875 217.820312 C 749.289062 217.453125 747.179688 216.773438 745.367188 216.144531 C 744.707031 217.03125 733.503906 213.195312 730.207031 210.488281 L 729.714844 211.417969 C 727.789062 214.875 727.5625 218.449219 731 221.007812 C 731.695312 221.523438 732.441406 222.019531 733.242188 222.488281 L 762.140625 222.488281 C 764.769531 223.011719 768.636719 223.777344 773.300781 224.089844 C 784.171875 224.824219 791.40625 222.171875 796.597656 219.191406 C 800.3125 217.0625 799.03125 214.117188 797.527344 210.460938 "/>
</g>
<path style=" stroke:none;fill-rule:nonzero;fill:rgb(8.239746%,7.839966%,6.669617%);fill-opacity:1;" d="M 777.5625 194.796875 C 777.515625 194.828125 777.476562 194.761719 777.507812 194.722656 C 777.890625 194.269531 777.636719 193.441406 777.246094 193.054688 C 777.191406 193.003906 777.273438 192.925781 777.328125 192.972656 C 777.765625 193.34375 778.136719 194.386719 777.5625 194.796875 Z M 772.597656 177.816406 C 772.839844 177.917969 773.058594 177.996094 773.246094 178.039062 C 775.28125 178.589844 777.273438 178.316406 778.898438 176.953125 C 779.0625 177.054688 778.300781 178.015625 778.21875 178.09375 C 776.699219 179.503906 774.296875 178.789062 772.597656 177.816406 Z M 771.679688 187.671875 C 771.648438 189.210938 771.546875 190.746094 771.789062 192.277344 C 771.796875 192.300781 771.757812 192.3125 771.75 192.289062 C 771.394531 190.722656 771.582031 189.039062 771.621094 187.445312 C 771.660156 186.023438 771.722656 184.5625 772.289062 183.238281 C 772.296875 183.21875 772.332031 183.230469 772.324219 183.25 C 771.769531 184.660156 771.707031 186.171875 771.679688 187.671875 Z M 771.859375 192.4375 C 771.9375 192.4375 771.988281 192.46875 772.027344 192.539062 C 772.042969 192.566406 772.007812 192.585938 771.988281 192.5625 C 771.953125 192.515625 771.90625 192.488281 771.851562 192.484375 C 771.824219 192.480469 771.832031 192.433594 771.859375 192.4375 Z M 771.988281 194.914062 C 771.960938 194.972656 771.863281 194.945312 771.871094 194.882812 C 771.933594 194.324219 772.019531 193.667969 771.5 193.28125 C 771.445312 193.242188 771.492188 193.152344 771.550781 193.191406 C 772.0625 193.523438 772.246094 194.367188 771.988281 194.914062 Z M 771.339844 172.570312 C 772.113281 172.285156 773.230469 172.820312 773.597656 173.535156 C 773.636719 173.613281 773.535156 173.671875 773.488281 173.601562 C 773.003906 172.902344 772.183594 172.578125 771.351562 172.667969 C 771.292969 172.671875 771.289062 172.585938 771.339844 172.570312 Z M 771.007812 169.238281 C 770.683594 169.113281 770.429688 168.5625 770.238281 168.292969 C 770.007812 167.972656 769.644531 167.320312 769.203125 167.257812 C 769.152344 167.25 769.164062 167.179688 769.203125 167.167969 C 769.554688 167.035156 769.976562 167.691406 770.140625 167.90625 C 770.328125 168.148438 770.507812 168.394531 770.691406 168.644531 C 770.8125 168.8125 770.988281 168.980469 771.070312 169.175781 C 771.085938 169.210938 771.042969 169.25 771.007812 169.238281 Z M 773.65625 176.023438 C 773.933594 176.355469 774.601562 176.394531 774.875 176.023438 C 774.839844 175.957031 774.84375 175.871094 774.84375 175.792969 C 774.847656 175.65625 774.863281 175.523438 774.875 175.390625 C 774.875 175.382812 774.878906 175.382812 774.878906 175.378906 C 774.660156 175.324219 774.164062 174.789062 774.148438 174.648438 C 774.132812 174.496094 774.871094 174.558594 775.683594 174.550781 C 775.867188 174.546875 775.195312 175.300781 774.953125 175.378906 C 774.953125 175.382812 774.957031 175.386719 774.957031 175.390625 C 774.972656 175.523438 774.992188 175.660156 775 175.792969 C 775 175.871094 775.015625 175.953125 774.988281 176.023438 C 774.988281 176.023438 774.988281 176.023438 774.988281 176.027344 C 775.265625 176.441406 775.863281 176.078125 776.109375 175.796875 C 776.15625 175.746094 776.238281 175.8125 776.203125 175.871094 C 775.972656 176.257812 775.179688 176.652344 774.90625 176.132812 C 774.613281 176.527344 773.878906 176.449219 773.589844 176.089844 C 773.550781 176.042969 773.613281 175.976562 773.65625 176.023438 Z M 776.332031 173.535156 C 776.699219 172.820312 777.816406 172.285156 778.589844 172.570312 C 778.640625 172.585938 778.636719 172.671875 778.578125 172.667969 C 777.746094 172.578125 776.925781 172.902344 776.441406 173.601562 C 776.394531 173.671875 776.292969 173.613281 776.332031 173.535156 Z M 777.667969 169.136719 C 777.9375 168.433594 778.507812 167.539062 779.171875 167.160156 C 779.21875 167.132812 779.292969 167.191406 779.253906 167.242188 C 779.011719 167.566406 778.707031 167.835938 778.472656 168.167969 C 778.234375 168.5 778.050781 168.867188 777.8125 169.195312 C 777.761719 169.261719 777.636719 169.226562 777.667969 169.136719 Z M 770.5 194.972656 C 770.46875 195.023438 770.390625 194.988281 770.40625 194.933594 C 770.554688 194.3125 770.316406 193.738281 769.921875 193.265625 C 769.886719 193.226562 769.941406 193.167969 769.980469 193.207031 C 770.390625 193.648438 770.816406 194.371094 770.5 194.972656 Z M 778.902344 192.753906 C 779.273438 193.179688 779.546875 193.996094 779.207031 194.507812 C 779.164062 194.570312 779.042969 194.53125 779.078125 194.453125 C 779.285156 193.929688 779.175781 193.273438 778.820312 192.832031 C 778.777344 192.777344 778.851562 192.695312 778.902344 192.753906 Z M 778.234375 195.035156 C 779.421875 194.9375 779.890625 194.507812 779.953125 193.976562 C 779.972656 193.800781 779.949219 193.613281 779.894531 193.421875 C 779.621094 192.523438 778.859375 192.003906 778.859375 192.003906 C 778.859375 192.003906 778.480469 190.546875 778.335938 189.609375 C 778.183594 188.605469 777.917969 187.453125 778 186.703125 C 778.050781 185.839844 778.28125 184.921875 778.53125 184.046875 C 778.570312 183.949219 778.609375 183.855469 778.644531 183.757812 C 779.066406 182.554688 779.367188 181.300781 779.367188 180.015625 C 779.367188 179.707031 779.1875 177.914062 778.988281 176.875 C 779.496094 176.433594 779.96875 175.886719 780.390625 175.21875 C 780.441406 175.140625 780.488281 175.058594 780.527344 174.96875 C 780.101562 175.109375 779.664062 175.199219 779.203125 175.207031 C 779.175781 175.207031 779.175781 175.160156 779.203125 175.160156 C 779.675781 175.15625 780.125 175.058594 780.554688 174.910156 C 780.757812 174.441406 780.84375 173.828125 780.828125 173.171875 C 780.28125 173.550781 779.699219 173.875 779.082031 174.117188 C 779.058594 174.125 779.050781 174.089844 779.070312 174.082031 C 779.703125 173.832031 780.28125 173.5 780.828125 173.113281 C 780.789062 171.710938 780.308594 170.136719 779.601562 169.441406 C 779.597656 168.945312 779.867188 167.097656 779.4375 166.863281 C 778.898438 166.554688 777.414062 168.65625 777.148438 168.996094 C 775.847656 168.484375 774.03125 168.296875 772.121094 169.070312 C 771.449219 168.441406 769.785156 166.574219 769.21875 166.902344 C 768.652344 167.230469 769.378906 169.078125 769.5625 170.023438 C 769.375 170.652344 769.058594 171.402344 768.835938 172.164062 C 769.433594 172.671875 770.148438 173.0625 770.808594 173.449219 C 770.824219 173.457031 770.808594 173.480469 770.792969 173.472656 C 770.132812 173.144531 769.417969 172.738281 768.820312 172.222656 C 768.691406 172.667969 768.59375 173.113281 768.570312 173.539062 C 769.011719 173.710938 769.457031 173.871094 769.917969 173.984375 C 769.941406 173.992188 769.933594 174.027344 769.910156 174.023438 C 769.445312 173.925781 769.003906 173.777344 768.566406 173.609375 C 768.558594 173.800781 768.566406 173.988281 768.59375 174.167969 C 768.628906 174.523438 768.808594 174.894531 769.082031 175.257812 C 768.667969 175.378906 767.167969 175.875 766.105469 176.824219 C 766.082031 176.84375 766.058594 176.867188 766.035156 176.886719 C 766.082031 178.289062 765.996094 179.785156 765.941406 181.378906 C 765.890625 182.910156 764.15625 189.042969 762.335938 188.804688 C 763.257812 190.902344 764.59375 193.257812 766.195312 194.035156 L 768.671875 193.898438 C 768.761719 194.195312 768.886719 194.449219 769.054688 194.65625 C 767.53125 197.644531 764.898438 200.332031 761.6875 201.320312 C 759.566406 201.976562 757.183594 202.097656 755.144531 201.121094 C 753.179688 200.179688 751.703125 198.242188 751.457031 196.066406 C 752.488281 195.757812 753.238281 195.632812 753.949219 195.515625 C 753.949219 195.515625 753.953125 195.515625 753.953125 195.515625 C 753.996094 195.386719 755.238281 195.335938 755.433594 195.289062 C 755.714844 195.222656 755.984375 195.136719 756.242188 195.023438 C 756.488281 194.914062 756.722656 194.78125 756.949219 194.625 C 758.820312 193.351562 760.058594 191.054688 760.71875 188.9375 C 760.96875 188.152344 761.113281 187.347656 761.226562 186.539062 C 761.054688 187.117188 760.773438 187.703125 760.332031 188.503906 C 758.777344 191.328125 755.359375 193.597656 754.050781 193.875 C 752.742188 194.15625 751.675781 193.597656 750.230469 192.289062 C 750.1875 192.253906 750.148438 192.214844 750.109375 192.179688 C 746.957031 193.324219 743.414062 195.34375 741.433594 198.027344 C 741.253906 198.269531 741.097656 198.511719 740.953125 198.753906 C 738.085938 203.511719 741.226562 208.4375 745.90625 210.359375 C 745.644531 212.207031 745.46875 214.0625 745.34375 215.882812 C 745.339844 215.9375 745.421875 215.933594 745.429688 215.882812 C 745.613281 214.054688 745.84375 212.246094 746.128906 210.449219 C 746.703125 210.667969 747.296875 210.847656 747.902344 210.972656 C 748.921875 211.183594 750.25 211.164062 751.234375 210.824219 C 752.480469 210.394531 753.035156 209.191406 751.882812 208.261719 C 750.734375 207.339844 749.179688 207.183594 747.863281 206.636719 C 747.535156 206.5 747.230469 206.320312 746.945312 206.109375 C 747.265625 204.628906 747.621094 203.15625 748.035156 201.691406 C 748.054688 201.628906 747.960938 201.609375 747.941406 201.667969 C 747.449219 203.046875 747.046875 204.472656 746.714844 205.925781 C 746.089844 205.402344 745.597656 204.714844 745.320312 203.953125 C 745.078125 203.292969 744.980469 202.484375 745.066406 201.785156 C 745.15625 201.027344 745.394531 200.101562 745.773438 199.4375 C 746.566406 198.050781 748 197.347656 749.421875 196.785156 C 750.148438 196.496094 750.761719 196.28125 751.300781 196.117188 C 751.496094 200.460938 756.285156 202.628906 760.109375 201.972656 C 763.796875 201.34375 767.851562 198.535156 769.234375 194.847656 C 769.617188 195.1875 770.191406 195.363281 771.0625 195.367188 C 772.648438 195.375 773.019531 194.691406 772.855469 193.910156 C 772.847656 193.871094 772.835938 193.835938 772.828125 193.800781 C 772.691406 193.28125 772.402344 192.882812 772.191406 192.644531 C 773.117188 192.097656 773.964844 191.402344 774.699219 190.535156 C 774.777344 190.441406 774.855469 190.34375 774.933594 190.246094 C 775.097656 191.105469 775.269531 191.925781 775.429688 192.664062 C 775.507812 193.101562 775.605469 193.484375 775.738281 193.804688 C 776.109375 194.722656 776.773438 195.15625 778.234375 195.035156 "/>
<path style=" stroke:none;fill-rule:nonzero;fill:rgb(8.239746%,7.839966%,6.669617%);fill-opacity:1;" d="M 746.976562 183.539062 C 746.796875 183.464844 746.988281 183.328125 747.097656 183.332031 C 747.183594 183.335938 747.222656 183.367188 747.25 183.421875 C 747.21875 183.507812 747.054688 183.566406 746.976562 183.539062 Z M 748.863281 183.460938 C 748.230469 182.691406 746.179688 182.53125 745.945312 183.746094 C 745.941406 183.761719 745.941406 183.777344 745.9375 183.796875 C 745.933594 183.824219 745.925781 183.847656 745.921875 183.878906 C 745.921875 183.914062 745.957031 183.933594 745.988281 183.925781 C 745.996094 183.925781 746 183.921875 746.007812 183.914062 C 746.214844 183.675781 746.386719 183.464844 746.589844 183.316406 C 746.480469 183.539062 746.480469 183.851562 746.605469 184.0625 C 746.628906 184.097656 746.710938 184.183594 746.726562 184.199219 C 746.839844 184.3125 747.003906 184.355469 747.222656 184.324219 C 747.511719 184.277344 747.753906 184.042969 747.8125 183.773438 C 747.882812 183.566406 747.800781 183.347656 747.695312 183.171875 C 748.074219 183.253906 748.425781 183.394531 748.75 183.609375 C 748.84375 183.675781 748.925781 183.539062 748.863281 183.460938 "/>
<path style=" stroke:none;fill-rule:nonzero;fill:rgb(8.239746%,7.839966%,6.669617%);fill-opacity:1;" d="M 753.945312 182.449219 C 753.765625 182.378906 753.957031 182.242188 754.066406 182.246094 C 754.152344 182.25 754.191406 182.28125 754.21875 182.332031 C 754.1875 182.421875 754.023438 182.480469 753.945312 182.449219 Z M 755.886719 182.351562 C 755.089844 181.421875 752.59375 181.535156 752.859375 183.179688 C 752.867188 183.222656 752.933594 183.230469 752.949219 183.191406 C 753.140625 182.804688 753.265625 182.449219 753.566406 182.21875 C 753.449219 182.441406 753.449219 182.757812 753.574219 182.972656 C 753.59375 183.011719 753.679688 183.097656 753.695312 183.113281 C 753.808594 183.226562 753.972656 183.269531 754.191406 183.234375 C 754.480469 183.191406 754.726562 182.957031 754.78125 182.683594 C 754.855469 182.472656 754.765625 182.242188 754.652344 182.058594 C 754.652344 182.058594 754.601562 182.058594 754.589844 182.046875 C 754.570312 182.027344 754.550781 182.011719 754.527344 181.996094 C 754.980469 182.0625 755.464844 182.285156 755.773438 182.5 C 755.867188 182.5625 755.953125 182.425781 755.886719 182.351562 "/>
<path style=" stroke:none;fill-rule:nonzero;fill:rgb(8.239746%,7.839966%,6.669617%);fill-opacity:1;" d="M 745.519531 182.230469 C 745.566406 182.230469 745.609375 182.226562 745.652344 182.21875 C 746.121094 182.160156 746.566406 181.890625 747.050781 181.839844 C 747.671875 181.777344 748.25 181.945312 748.859375 182.023438 C 749.117188 182.054688 749.171875 181.683594 748.984375 181.5625 C 748.277344 181.113281 746.308594 180.917969 745.570312 181.640625 C 745.480469 181.730469 745.40625 181.828125 745.355469 181.945312 C 745.300781 182.070312 745.359375 182.238281 745.519531 182.230469 "/>
<path style=" stroke:none;fill-rule:nonzero;fill:rgb(8.239746%,7.839966%,6.669617%);fill-opacity:1;" d="M 755.949219 179.972656 C 755.175781 179.65625 754.289062 179.6875 753.492188 179.882812 C 752.808594 180.050781 751.882812 180.496094 751.816406 181.269531 C 751.804688 181.390625 751.9375 181.535156 752.066406 181.519531 C 752.679688 181.445312 753.121094 180.902344 753.714844 180.695312 C 754.417969 180.449219 755.144531 180.574219 755.867188 180.582031 C 756.238281 180.585938 756.25 180.097656 755.949219 179.972656 "/>
<path style=" stroke:none;fill-rule:nonzero;fill:rgb(8.239746%,7.839966%,6.669617%);fill-opacity:1;" d="M 754.226562 188.238281 C 754.253906 188.195312 754.195312 188.132812 754.152344 188.164062 C 753.421875 188.691406 752.792969 189.085938 751.902344 189.289062 C 751.140625 189.464844 749.914062 189.75 749.175781 189.425781 C 749.136719 189.40625 749.105469 189.457031 749.140625 189.484375 C 749.824219 189.984375 750.976562 189.65625 751.75 189.53125 C 752.648438 189.386719 753.683594 189.023438 754.226562 188.238281 "/>
<path style=" stroke:none;fill-rule:nonzero;fill:rgb(8.239746%,7.839966%,6.669617%);fill-opacity:1;" d="M 748.945312 187.140625 C 748.917969 188.140625 751.101562 187.433594 751.492188 187.28125 C 751.558594 187.253906 751.582031 187.132812 751.492188 187.117188 C 751.121094 187.054688 750.800781 187.15625 750.4375 187.246094 C 750.132812 187.320312 749.070312 187.648438 749.257812 186.773438 C 749.328125 186.460938 749.515625 186.152344 749.664062 185.863281 C 750.203125 184.800781 750.28125 183.332031 749.949219 182.203125 C 749.933594 182.160156 749.863281 182.167969 749.867188 182.214844 C 749.960938 183.351562 749.925781 184.367188 749.546875 185.457031 C 749.347656 186.039062 748.960938 186.507812 748.945312 187.140625 "/>
<path style=" stroke:none;fill-rule:nonzero;fill:rgb(8.239746%,7.839966%,6.669617%);fill-opacity:1;" d="M 752.597656 178.195312 C 752.742188 178.1875 752.890625 178.167969 753.03125 178.132812 C 753.148438 178.105469 753.105469 177.949219 753.003906 177.9375 C 750.816406 177.644531 747.679688 176.203125 747.832031 173.53125 C 747.839844 173.359375 747.582031 173.363281 747.570312 173.53125 C 747.550781 173.746094 747.5625 173.964844 747.597656 174.179688 C 747.929688 176.269531 750.515625 178.332031 752.597656 178.195312 "/>
<path style=" stroke:none;fill-rule:nonzero;fill:rgb(8.239746%,7.839966%,6.669617%);fill-opacity:1;" d="M 752.613281 177.085938 C 753.207031 177.433594 753.824219 177.757812 754.457031 178.03125 C 755.699219 178.558594 757.015625 178.878906 758.375 178.71875 C 758.414062 178.714844 758.441406 178.699219 758.457031 178.675781 C 758.507812 178.617188 758.480469 178.511719 758.375 178.5 C 756.542969 178.289062 754.996094 177.9375 753.339844 177.085938 C 752.023438 176.402344 750.328125 175.539062 749.726562 174.101562 C 749.652344 173.921875 749.355469 173.996094 749.429688 174.183594 C 749.996094 175.582031 751.375 176.363281 752.613281 177.085938 "/>
<path style=" stroke:none;fill-rule:nonzero;fill:rgb(8.239746%,7.839966%,6.669617%);fill-opacity:1;" d="M 755.472656 176.464844 C 756.875 177.144531 758.085938 178.203125 759.574219 178.699219 C 759.691406 178.738281 759.746094 178.574219 759.652344 178.511719 C 758.488281 177.730469 757.230469 177.050781 756.015625 176.351562 C 754.777344 175.636719 753.421875 175.242188 752.28125 174.339844 C 752.117188 174.210938 751.882812 174.441406 752.050781 174.574219 C 753.085938 175.402344 754.289062 175.886719 755.472656 176.464844 "/>
<path style=" stroke:none;fill-rule:nonzero;fill:rgb(8.239746%,7.839966%,6.669617%);fill-opacity:1;" d="M 750.898438 190.253906 C 750.851562 190.242188 750.835938 190.304688 750.878906 190.324219 C 751.347656 190.515625 752.050781 190.472656 752.4375 190.105469 C 752.464844 190.078125 752.4375 190.027344 752.398438 190.039062 C 751.902344 190.183594 751.425781 190.390625 750.898438 190.253906 "/>
<path style=" stroke:none;fill-rule:nonzero;fill:rgb(8.239746%,7.839966%,6.669617%);fill-opacity:1;" d="M 753.273438 196.289062 C 752.84375 196.34375 752.441406 196.507812 752 196.523438 C 751.9375 196.527344 751.9375 196.625 752 196.621094 C 752.433594 196.617188 752.882812 196.519531 753.285156 196.359375 C 753.316406 196.34375 753.316406 196.285156 753.273438 196.289062 "/>
<path style=" stroke:none;fill-rule:nonzero;fill:rgb(8.239746%,7.839966%,6.669617%);fill-opacity:1;" d="M 752.484375 197.898438 C 752.894531 197.820312 753.257812 197.578125 753.582031 197.328125 C 753.625 197.296875 753.601562 197.21875 753.542969 197.238281 C 753.152344 197.359375 752.847656 197.65625 752.4375 197.742188 C 752.335938 197.761719 752.382812 197.917969 752.484375 197.898438 "/>
<path style=" stroke:none;fill-rule:nonzero;fill:rgb(8.239746%,7.839966%,6.669617%);fill-opacity:1;" d="M 753.628906 199.449219 C 753.894531 199.332031 754.167969 199.144531 754.34375 198.914062 C 754.378906 198.867188 754.316406 198.824219 754.277344 198.84375 C 754.019531 198.976562 753.820312 199.199219 753.554688 199.320312 C 753.472656 199.363281 753.546875 199.484375 753.628906 199.449219 "/>
<path style=" stroke:none;fill-rule:nonzero;fill:rgb(8.239746%,7.839966%,6.669617%);fill-opacity:1;" d="M 755.800781 199.894531 C 755.605469 200.058594 755.453125 200.285156 755.3125 200.496094 C 755.273438 200.554688 755.371094 200.613281 755.410156 200.550781 C 755.550781 200.34375 755.734375 200.160156 755.851562 199.933594 C 755.871094 199.902344 755.828125 199.871094 755.800781 199.894531 "/>
<path style=" stroke:none;fill-rule:nonzero;fill:rgb(8.239746%,7.839966%,6.669617%);fill-opacity:1;" d="M 757.503906 200.296875 C 757.460938 200.585938 757.359375 200.871094 757.347656 201.164062 C 757.347656 201.195312 757.394531 201.210938 757.40625 201.179688 C 757.535156 200.910156 757.578125 200.605469 757.609375 200.308594 C 757.617188 200.25 757.511719 200.234375 757.503906 200.296875 "/>
<path style=" stroke:none;fill-rule:nonzero;fill:rgb(8.239746%,7.839966%,6.669617%);fill-opacity:1;" d="M 759.476562 199.953125 C 759.515625 200.328125 759.570312 200.761719 759.773438 201.085938 C 759.800781 201.128906 759.878906 201.113281 759.875 201.058594 C 759.871094 200.6875 759.714844 200.320312 759.671875 199.953125 C 759.65625 199.828125 759.460938 199.828125 759.476562 199.953125 "/>
<path style=" stroke:none;fill-rule:nonzero;fill:rgb(8.239746%,7.839966%,6.669617%);fill-opacity:1;" d="M 761.9375 199.558594 C 762.046875 199.730469 762.167969 199.960938 762.339844 200.074219 C 762.386719 200.105469 762.433594 200.054688 762.425781 200.007812 C 762.390625 199.84375 762.25 199.707031 762.148438 199.574219 C 761.996094 199.378906 761.855469 199.171875 761.761719 198.941406 C 761.726562 198.863281 761.601562 198.894531 761.632812 198.976562 C 761.707031 199.183594 761.816406 199.371094 761.9375 199.558594 "/>
<path style=" stroke:none;fill-rule:nonzero;fill:rgb(8.239746%,7.839966%,6.669617%);fill-opacity:1;" d="M 764.085938 198.183594 C 764.21875 198.304688 764.378906 198.449219 764.5625 198.46875 C 764.621094 198.476562 764.660156 198.394531 764.628906 198.347656 C 764.546875 198.207031 764.382812 198.113281 764.257812 198.011719 C 764.101562 197.882812 763.972656 197.730469 763.820312 197.605469 C 763.734375 197.535156 763.597656 197.625 763.660156 197.726562 C 763.765625 197.902344 763.9375 198.046875 764.085938 198.183594 "/>
<path style=" stroke:none;fill-rule:nonzero;fill:rgb(8.239746%,7.839966%,6.669617%);fill-opacity:1;" d="M 765.402344 196.257812 C 765.273438 196.207031 765.222656 196.414062 765.347656 196.464844 C 765.695312 196.605469 766.148438 196.796875 766.527344 196.714844 C 766.585938 196.703125 766.605469 196.605469 766.546875 196.582031 C 766.386719 196.507812 766.210938 196.488281 766.042969 196.449219 C 765.824219 196.40625 765.613281 196.335938 765.402344 196.257812 "/>
<path style=" stroke:none;fill-rule:nonzero;fill:rgb(8.239746%,7.839966%,6.669617%);fill-opacity:1;" d="M 766.585938 195.039062 C 766.835938 195.097656 767.085938 195.152344 767.335938 195.214844 C 767.539062 195.269531 767.738281 195.34375 767.949219 195.3125 C 768.039062 195.300781 768.027344 195.179688 767.972656 195.140625 C 767.789062 195.003906 767.539062 194.964844 767.320312 194.914062 C 767.089844 194.855469 766.851562 194.820312 766.613281 194.832031 C 766.5 194.835938 766.464844 195.011719 766.585938 195.039062 "/>
<path style=" stroke:none;fill-rule:nonzero;fill:rgb(8.239746%,7.839966%,6.669617%);fill-opacity:1;" d="M 751.789062 219.863281 C 752.335938 219.605469 752.8125 219.339844 753.425781 219.273438 C 754.023438 219.210938 754.691406 219.304688 755.273438 219.433594 C 755.320312 219.445312 755.335938 219.378906 755.292969 219.363281 C 754.140625 218.964844 752.703125 218.976562 751.734375 219.796875 C 751.695312 219.828125 751.746094 219.882812 751.789062 219.863281 "/>
<path style=" stroke:none;fill-rule:nonzero;fill:rgb(8.239746%,7.839966%,6.669617%);fill-opacity:1;" d="M 755.410156 217.917969 C 755.449219 217.933594 755.484375 217.882812 755.445312 217.859375 C 754.683594 217.46875 753.898438 217.398438 753.066406 217.578125 C 752.382812 217.726562 751.488281 217.835938 751.140625 218.523438 C 751.117188 218.570312 751.171875 218.609375 751.207031 218.578125 C 752.234375 217.636719 754.148438 217.382812 755.410156 217.917969 "/>
<path style=" stroke:none;fill-rule:nonzero;fill:rgb(8.239746%,7.839966%,6.669617%);fill-opacity:1;" d="M 752.902344 216.21875 C 753.671875 215.832031 754.894531 215.828125 755.644531 216.265625 C 755.671875 216.28125 755.691406 216.238281 755.667969 216.222656 C 754.316406 215.253906 752.398438 216.089844 751.246094 216.992188 C 751.207031 217.019531 751.25 217.078125 751.289062 217.066406 C 751.859375 216.902344 752.371094 216.480469 752.902344 216.21875 "/>
<path style=" stroke:none;fill-rule:nonzero;fill:rgb(8.239746%,7.839966%,6.669617%);fill-opacity:1;" d="M 761.886719 221.28125 C 761.1875 221.609375 760.558594 221.921875 759.824219 222.097656 C 759.652344 222.121094 759.476562 222.152344 759.289062 222.203125 C 758.496094 222.429688 757.921875 222.429688 757.1875 221.964844 C 756.683594 221.644531 756.238281 221.261719 755.675781 221.046875 C 755.128906 220.839844 754.613281 220.734375 754.03125 220.722656 C 753.210938 220.710938 752.460938 220.824219 751.78125 220.234375 C 751.753906 220.207031 751.714844 220.246094 751.738281 220.277344 C 752.4375 221.082031 753.523438 220.878906 754.480469 220.9375 C 755.800781 221.015625 756.648438 222.117188 757.804688 222.488281 C 757.960938 222.539062 758.125 222.574219 758.292969 222.59375 C 758.542969 222.621094 758.8125 222.566406 759.078125 222.488281 C 759.320312 222.417969 759.5625 222.328125 759.78125 222.277344 C 759.828125 222.265625 759.871094 222.257812 759.914062 222.253906 C 759.925781 222.246094 759.9375 222.242188 759.949219 222.238281 C 760.230469 222.195312 760.519531 222.128906 760.800781 222.03125 C 760.898438 222.082031 761 222.128906 761.101562 222.179688 C 761.257812 222.25 761.457031 222.390625 761.632812 222.398438 C 761.671875 222.398438 761.679688 222.355469 761.660156 222.332031 C 761.558594 222.199219 761.3125 222.136719 761.160156 222.074219 C 761.085938 222.039062 761.007812 222.011719 760.929688 221.980469 C 761.3125 221.832031 761.667969 221.628906 761.945312 221.355469 C 761.988281 221.316406 761.933594 221.253906 761.886719 221.28125 "/>
<path style=" stroke:none;fill-rule:nonzero;fill:rgb(8.239746%,7.839966%,6.669617%);fill-opacity:1;" d="M 785.324219 212.03125 C 781.464844 208.628906 778.339844 204.5625 776.367188 199.761719 C 776.332031 199.679688 776.199219 199.710938 776.230469 199.796875 C 777.203125 202.410156 778.601562 204.820312 780.230469 207.070312 C 781.582031 208.9375 783.199219 211 785.226562 212.15625 C 785.300781 212.203125 785.390625 212.09375 785.324219 212.03125 "/>
<path style=" stroke:none;fill-rule:nonzero;fill:rgb(8.239746%,7.839966%,6.669617%);fill-opacity:1;" d="M 761.074219 182.988281 C 760.929688 182.355469 761.054688 181.746094 761.273438 181.148438 C 761.304688 181.066406 761.175781 181.011719 761.136719 181.085938 C 760.824219 181.679688 760.652344 182.390625 760.890625 183.039062 C 760.929688 183.15625 761.101562 183.113281 761.074219 182.988281 "/>
<g clip-path="url(#clip3)" clip-rule="nonzero">
<path style=" stroke:none;fill-rule:nonzero;fill:rgb(13.729858%,15.689087%,41.569519%);fill-opacity:1;" d="M 380.621094 121.773438 L 363.203125 123.308594 L 363.203125 117.453125 L 361.515625 115.726562 L 299.714844 115.542969 L 297.921875 117.269531 L 297.921875 123.355469 L 279.890625 121.773438 L 278.953125 122.636719 L 278.953125 216.40625 L 279.742188 217.265625 L 298.988281 218.953125 L 299.769531 219.734375 L 361.601562 219.734375 L 362.339844 218.882812 L 380.890625 217.265625 L 381.433594 216.40625 L 381.433594 122.636719 L 380.621094 121.773438 "/>
</g>
<path style=" stroke:none;fill-rule:nonzero;fill:rgb(32.548523%,56.079102%,69.799805%);fill-opacity:1;" d="M 299.714844 119.632812 L 361.710938 119.632812 L 361.710938 120.671875 L 299.714844 120.671875 L 299.714844 119.632812 "/>
<path style=" stroke:none;fill-rule:nonzero;fill:rgb(32.548523%,56.079102%,69.799805%);fill-opacity:1;" d="M 346.238281 194.941406 C 346.246094 194.945312 346.253906 194.949219 346.261719 194.953125 C 346.328125 194.976562 346.394531 195.003906 346.464844 195.027344 C 346.691406 195.113281 346.929688 195.207031 347.175781 195.300781 C 347.230469 195.320312 347.28125 195.339844 347.332031 195.359375 C 347.394531 195.382812 347.457031 195.40625 347.519531 195.429688 C 347.585938 195.457031 347.652344 195.480469 347.71875 195.507812 C 347.761719 195.523438 347.804688 195.539062 347.847656 195.554688 C 347.957031 195.597656 348.070312 195.640625 348.179688 195.683594 C 348.191406 195.6875 348.199219 195.691406 348.210938 195.695312 C 351.011719 196.761719 354.429688 198.070312 356 198.667969 C 356.03125 198.679688 356.054688 198.691406 356.082031 198.699219 C 356.1875 198.742188 356.289062 198.777344 356.375 198.8125 C 356.441406 198.835938 356.5 198.859375 356.554688 198.882812 C 356.597656 198.898438 356.636719 198.910156 356.671875 198.925781 C 356.683594 198.929688 356.699219 198.9375 356.714844 198.941406 C 356.773438 198.964844 356.820312 198.984375 356.847656 198.992188 C 356.859375 198.996094 356.871094 199 356.871094 199 C 356.871094 199 358.292969 200.101562 358.160156 200.25 C 358.027344 200.398438 356.746094 200.222656 356.746094 200.222656 L 345.9375 196.476562 C 345.488281 196.332031 342.722656 195.46875 342.886719 194.652344 C 343.050781 193.835938 345.488281 194.65625 345.894531 194.8125 C 346.003906 194.855469 346.121094 194.898438 346.238281 194.941406 Z M 300.546875 217.992188 L 301.101562 217.992188 L 301.101562 218.007812 L 360.046875 218.007812 L 360.046875 124.839844 L 300.546875 124.839844 L 300.546875 217.992188 "/>
<path style=" stroke:none;fill-rule:nonzero;fill:rgb(32.548523%,56.079102%,69.799805%);fill-opacity:1;" d="M 298.78125 128.703125 L 280.785156 126.972656 L 280.878906 125.992188 L 298.875 127.722656 L 298.78125 128.703125 "/>
<path style=" stroke:none;fill-rule:nonzero;fill:rgb(32.548523%,56.079102%,69.799805%);fill-opacity:1;" d="M 298.78125 134.878906 L 280.785156 133.148438 L 280.878906 132.167969 L 298.875 133.894531 L 298.78125 134.878906 "/>
<path style=" stroke:none;fill-rule:nonzero;fill:rgb(32.548523%,56.079102%,69.799805%);fill-opacity:1;" d="M 298.78125 141.054688 L 280.785156 139.324219 L 280.878906 138.339844 L 298.875 140.070312 L 298.78125 141.054688 "/>
<path style=" stroke:none;fill-rule:nonzero;fill:rgb(32.548523%,56.079102%,69.799805%);fill-opacity:1;" d="M 298.785156 147.230469 L 280.785156 145.5 L 280.878906 144.515625 L 298.878906 146.246094 L 298.785156 147.230469 "/>
<path style=" stroke:none;fill-rule:nonzero;fill:rgb(32.548523%,56.079102%,69.799805%);fill-opacity:1;" d="M 298.785156 153.402344 L 280.785156 151.671875 L 280.878906 150.691406 L 298.878906 152.417969 L 298.785156 153.402344 "/>
<path style=" stroke:none;fill-rule:nonzero;fill:rgb(32.548523%,56.079102%,69.799805%);fill-opacity:1;" d="M 298.785156 159.578125 L 280.785156 157.847656 L 280.878906 156.863281 L 298.878906 158.59375 L 298.785156 159.578125 "/>
<path style=" stroke:none;fill-rule:nonzero;fill:rgb(32.548523%,56.079102%,69.799805%);fill-opacity:1;" d="M 298.785156 165.753906 L 280.785156 164.023438 L 280.878906 163.039062 L 298.878906 164.769531 L 298.785156 165.753906 "/>
<path style=" stroke:none;fill-rule:nonzero;fill:rgb(32.548523%,56.079102%,69.799805%);fill-opacity:1;" d="M 298.785156 171.925781 L 280.785156 170.195312 L 280.878906 169.214844 L 298.878906 170.945312 L 298.785156 171.925781 "/>
<path style=" stroke:none;fill-rule:nonzero;fill:rgb(32.548523%,56.079102%,69.799805%);fill-opacity:1;" d="M 298.785156 178.101562 L 280.785156 176.371094 L 280.878906 175.390625 L 298.878906 177.117188 L 298.785156 178.101562 "/>
<path style=" stroke:none;fill-rule:nonzero;fill:rgb(32.548523%,56.079102%,69.799805%);fill-opacity:1;" d="M 298.785156 184.277344 L 280.785156 182.546875 L 280.878906 181.5625 L 298.878906 183.292969 L 298.785156 184.277344 "/>
<path style=" stroke:none;fill-rule:nonzero;fill:rgb(32.548523%,56.079102%,69.799805%);fill-opacity:1;" d="M 298.785156 190.453125 L 280.785156 188.722656 L 280.878906 187.738281 L 298.878906 189.46875 L 298.785156 190.453125 "/>
<path style=" stroke:none;fill-rule:nonzero;fill:rgb(32.548523%,56.079102%,69.799805%);fill-opacity:1;" d="M 298.785156 196.625 L 280.785156 194.894531 L 280.882812 193.914062 L 298.878906 195.644531 L 298.785156 196.625 "/>
<path style=" stroke:none;fill-rule:nonzero;fill:rgb(32.548523%,56.079102%,69.799805%);fill-opacity:1;" d="M 298.785156 202.800781 L 280.785156 201.070312 L 280.882812 200.089844 L 298.878906 201.816406 L 298.785156 202.800781 "/>
<path style=" stroke:none;fill-rule:nonzero;fill:rgb(32.548523%,56.079102%,69.799805%);fill-opacity:1;" d="M 298.785156 208.976562 L 280.785156 207.246094 L 280.882812 206.261719 L 298.878906 207.992188 L 298.785156 208.976562 "/>
<path style=" stroke:none;fill-rule:nonzero;fill:rgb(32.548523%,56.079102%,69.799805%);fill-opacity:1;" d="M 298.785156 215.148438 L 280.789062 213.421875 L 280.882812 212.4375 L 298.878906 214.167969 L 298.785156 215.148438 "/>
<path style=" stroke:none;fill-rule:nonzero;fill:rgb(32.548523%,56.079102%,69.799805%);fill-opacity:1;" d="M 380.394531 125.996094 L 380.488281 126.980469 L 362.488281 128.707031 L 362.394531 127.722656 L 380.394531 125.996094 "/>
<path style=" stroke:none;fill-rule:nonzero;fill:rgb(32.548523%,56.079102%,69.799805%);fill-opacity:1;" d="M 362.488281 134.871094 L 362.394531 133.890625 L 380.394531 132.164062 L 380.488281 133.148438 L 362.488281 134.871094 "/>
<path style=" stroke:none;fill-rule:nonzero;fill:rgb(32.548523%,56.079102%,69.799805%);fill-opacity:1;" d="M 362.488281 141.046875 L 362.394531 140.0625 L 380.394531 138.339844 L 380.488281 139.324219 L 362.488281 141.046875 "/>
<path style=" stroke:none;fill-rule:nonzero;fill:rgb(32.548523%,56.079102%,69.799805%);fill-opacity:1;" d="M 362.488281 147.222656 L 362.394531 146.238281 L 380.394531 144.511719 L 380.488281 145.496094 L 362.488281 147.222656 "/>
<path style=" stroke:none;fill-rule:nonzero;fill:rgb(32.548523%,56.079102%,69.799805%);fill-opacity:1;" d="M 362.488281 153.394531 L 362.394531 152.410156 L 380.394531 150.6875 L 380.488281 151.671875 L 362.488281 153.394531 "/>
<path style=" stroke:none;fill-rule:nonzero;fill:rgb(32.548523%,56.079102%,69.799805%);fill-opacity:1;" d="M 362.488281 159.570312 L 362.394531 158.585938 L 380.394531 156.863281 L 380.492188 157.847656 L 362.488281 159.570312 "/>
<path style=" stroke:none;fill-rule:nonzero;fill:rgb(32.548523%,56.079102%,69.799805%);fill-opacity:1;" d="M 362.492188 165.746094 L 362.394531 164.761719 L 380.394531 163.035156 L 380.492188 164.019531 L 362.492188 165.746094 "/>
<path style=" stroke:none;fill-rule:nonzero;fill:rgb(32.548523%,56.079102%,69.799805%);fill-opacity:1;" d="M 362.492188 171.917969 L 362.398438 170.9375 L 380.398438 169.210938 L 380.492188 170.195312 L 362.492188 171.917969 "/>
<path style=" stroke:none;fill-rule:nonzero;fill:rgb(32.548523%,56.079102%,69.799805%);fill-opacity:1;" d="M 362.492188 178.09375 L 362.398438 177.109375 L 380.398438 175.386719 L 380.492188 176.371094 L 362.492188 178.09375 "/>
<path style=" stroke:none;fill-rule:nonzero;fill:rgb(32.548523%,56.079102%,69.799805%);fill-opacity:1;" d="M 362.492188 184.269531 L 362.398438 183.285156 L 380.398438 181.558594 L 380.492188 182.542969 L 362.492188 184.269531 "/>
<path style=" stroke:none;fill-rule:nonzero;fill:rgb(32.548523%,56.079102%,69.799805%);fill-opacity:1;" d="M 362.492188 190.441406 L 362.398438 189.457031 L 380.398438 187.734375 L 380.492188 188.71875 L 362.492188 190.441406 "/>
<path style=" stroke:none;fill-rule:nonzero;fill:rgb(32.548523%,56.079102%,69.799805%);fill-opacity:1;" d="M 362.492188 196.617188 L 362.398438 195.632812 L 380.398438 193.910156 L 380.492188 194.890625 L 362.492188 196.617188 "/>
<path style=" stroke:none;fill-rule:nonzero;fill:rgb(32.548523%,56.079102%,69.799805%);fill-opacity:1;" d="M 362.492188 202.792969 L 362.398438 201.808594 L 380.398438 200.082031 L 380.492188 201.066406 L 362.492188 202.792969 "/>
<path style=" stroke:none;fill-rule:nonzero;fill:rgb(32.548523%,56.079102%,69.799805%);fill-opacity:1;" d="M 362.492188 208.964844 L 362.398438 207.984375 L 380.398438 206.257812 L 380.492188 207.242188 L 362.492188 208.964844 "/>
<path style=" stroke:none;fill-rule:nonzero;fill:rgb(32.548523%,56.079102%,69.799805%);fill-opacity:1;" d="M 362.492188 215.140625 L 362.398438 214.15625 L 380.398438 212.433594 L 380.492188 213.417969 L 362.492188 215.140625 "/>
<path style=" stroke:none;fill-rule:nonzero;fill:rgb(100%,70.588684%,0%);fill-opacity:1;" d="M 350.324219 207.386719 C 349.167969 207.5625 343.660156 208.71875 343.394531 210.320312 C 343.21875 211.210938 345.257812 212.722656 345.792969 213.257812 C 346.007812 213.464844 346.226562 213.667969 346.449219 213.867188 C 346.566406 213.882812 346.6875 213.902344 346.808594 213.917969 C 347 213.652344 347.429688 213.375 347.859375 213.136719 C 347.832031 213.113281 347.804688 213.089844 347.777344 213.0625 C 347.316406 212.613281 345.546875 211.347656 345.703125 210.597656 C 345.933594 209.257812 350.703125 208.285156 351.703125 208.136719 C 353.933594 207.691406 356.167969 207.167969 358.398438 206.792969 C 359.042969 206.648438 359.5625 206.535156 360.078125 206.574219 L 360.078125 205.527344 C 360 205.519531 359.917969 205.515625 359.839844 205.511719 C 359.292969 205.5 358.734375 205.625 358.050781 205.785156 C 355.472656 206.226562 352.898438 206.851562 350.324219 207.386719 "/>
<path style=" stroke:none;fill-rule:nonzero;fill:rgb(100%,70.588684%,0%);fill-opacity:1;" d="M 356.550781 217.988281 C 356.582031 218.027344 356.601562 218.070312 356.613281 218.113281 L 360.078125 218.113281 L 360.078125 217.988281 L 356.550781 217.988281 "/>
<path style=" stroke:none;fill-rule:nonzero;fill:rgb(100%,70.588684%,0%);fill-opacity:1;" d="M 328.46875 186.933594 C 328.476562 187.335938 328.542969 188.410156 329.097656 188.921875 C 329.308594 189.121094 329.335938 189.121094 329.484375 189.226562 C 329.578125 189.140625 329.667969 189.050781 329.761719 188.960938 C 329.761719 188.960938 329.761719 188.957031 329.765625 188.957031 C 329.855469 188.867188 329.941406 188.777344 330.023438 188.6875 C 329.34375 188.25 328.777344 187.597656 328.46875 186.933594 "/>
<path style=" stroke:none;fill-rule:nonzero;fill:rgb(100%,70.588684%,0%);fill-opacity:1;" d="M 330.414062 187.769531 C 330.265625 187.613281 328.925781 186.988281 328.566406 186.820312 C 328.894531 187.59375 329.460938 188.175781 330.148438 188.558594 C 330.273438 188.425781 330.390625 188.296875 330.5 188.179688 C 330.5 188.171875 330.535156 187.898438 330.414062 187.769531 "/>
<path style=" stroke:none;fill-rule:nonzero;fill:rgb(100%,70.588684%,0%);fill-opacity:1;" d="M 330.675781 197.945312 C 328.03125 196.097656 323.054688 193.574219 321.105469 192.75 C 321.03125 192.71875 320.960938 192.691406 320.898438 192.664062 C 320.925781 192.683594 320.957031 192.703125 320.980469 192.714844 C 320.984375 192.71875 320.984375 192.71875 320.988281 192.722656 C 321.007812 192.730469 321.027344 192.738281 321.042969 192.746094 C 323.195312 194.339844 325.796875 197.90625 327.953125 201.839844 C 328.558594 201.175781 329.074219 200.421875 329.566406 199.660156 C 329.9375 199.082031 330.296875 198.496094 330.675781 197.945312 "/>
<path style=" stroke:none;fill-rule:nonzero;fill:rgb(100%,70.588684%,0%);fill-opacity:1;" d="M 327.414062 218.082031 C 326.046875 217.660156 324.628906 216.609375 323.417969 215.792969 C 320.433594 213.777344 317.894531 211.3125 315.804688 208.25 C 315.65625 208.28125 315.511719 208.320312 315.359375 208.351562 C 314.578125 208.53125 313.253906 209.40625 312.835938 208.652344 C 312.535156 208.109375 311.960938 207.09375 311.71875 206.492188 C 310.878906 204.382812 310.011719 202.6875 310.910156 200.402344 C 311.632812 198.472656 313.4375 197.027344 315.421875 196.484375 C 319.691406 195.402344 323.417969 199.496094 325.882812 202.265625 C 325.386719 202.714844 324.902344 203.199219 324.40625 203.679688 C 324.789062 204.464844 325.160156 205.257812 325.582031 206.015625 C 326.148438 207.035156 326.765625 208.042969 327.53125 208.921875 C 327.640625 209.046875 328.980469 210.0625 330.859375 210.5625 C 330.871094 210.550781 330.882812 210.539062 330.90625 210.546875 C 331.171875 210.597656 331.445312 210.640625 331.714844 210.683594 C 331.429688 209.707031 331.089844 208.679688 330.675781 207.617188 C 329.9375 205.726562 329 203.742188 327.953125 201.839844 C 325.796875 197.90625 323.195312 194.339844 321.042969 192.746094 C 321.027344 192.738281 321.007812 192.730469 320.988281 192.71875 C 321.636719 193.203125 322.332031 194.121094 322.957031 195.125 C 324.480469 197.582031 325.679688 200.734375 325.359375 200.355469 C 324.625 199.492188 323.953125 198.5625 323.25 197.667969 C 321.929688 195.984375 320.546875 194.402344 318.71875 193.253906 C 318.035156 192.828125 317.308594 192.484375 316.558594 192.203125 C 316.003906 191.996094 314.859375 191.679688 314.859375 191.679688 C 314.859375 191.679688 314.863281 191.675781 314.863281 191.675781 C 314.726562 191.671875 314.59375 191.667969 314.464844 191.664062 C 313.699219 192.023438 312.898438 192.28125 312.152344 192.707031 C 311.804688 192.914062 311.515625 193.101562 311.25 193.316406 C 310.835938 193.765625 310.375 194.320312 309.878906 194.996094 C 309.761719 195.179688 309.652344 195.335938 309.539062 195.472656 C 309.492188 195.539062 309.445312 195.605469 309.398438 195.675781 C 308.707031 196.683594 307.972656 197.921875 307.226562 199.429688 C 306.289062 201.335938 305.574219 203.875 305.035156 206.472656 C 303.972656 211.5625 303.585938 216.867188 303.511719 217.992188 C 303.507812 218.039062 303.503906 218.082031 303.503906 218.113281 L 327.507812 218.113281 C 327.492188 218.105469 327.476562 218.101562 327.457031 218.097656 C 327.441406 218.089844 327.429688 218.089844 327.414062 218.082031 "/>
<path style=" stroke:none;fill-rule:nonzero;fill:rgb(100%,70.588684%,0%);fill-opacity:1;" d="M 321.914062 205.699219 C 322.828125 205.152344 323.632812 204.421875 324.40625 203.679688 C 324.902344 203.199219 325.386719 202.714844 325.882812 202.265625 C 323.417969 199.496094 319.691406 195.402344 315.421875 196.484375 C 313.4375 197.027344 311.632812 198.472656 310.910156 200.402344 C 310.011719 202.6875 310.878906 204.386719 311.71875 206.492188 C 311.960938 207.09375 312.535156 208.109375 312.835938 208.652344 C 313.253906 209.40625 314.578125 208.53125 315.359375 208.351562 C 315.511719 208.320312 315.65625 208.28125 315.804688 208.25 C 317.976562 207.746094 320 206.886719 321.914062 205.699219 "/>
<path style=" stroke:none;fill-rule:nonzero;fill:rgb(44.709778%,23.529053%,11.369324%);fill-opacity:1;" d="M 355.351562 199.789062 L 354.695312 199.5625 C 354.859375 199.902344 355.167969 199.949219 355.351562 199.789062 "/>
<path style=" stroke:none;fill-rule:nonzero;fill:rgb(44.709778%,23.529053%,11.369324%);fill-opacity:1;" d="M 316.558594 192.203125 C 317.308594 192.484375 318.035156 192.828125 318.71875 193.253906 C 320.546875 194.402344 321.929688 195.984375 323.25 197.671875 C 323.953125 198.5625 324.625 199.492188 325.359375 200.355469 C 325.679688 200.734375 324.480469 197.582031 322.957031 195.125 C 322.332031 194.121094 321.636719 193.203125 320.988281 192.722656 C 320.988281 192.71875 320.984375 192.71875 320.980469 192.714844 C 320.957031 192.703125 320.925781 192.683594 320.898438 192.664062 C 320.960938 192.691406 321.03125 192.71875 321.105469 192.75 C 321.597656 191.496094 322.488281 190.410156 323.324219 190.433594 C 325.1875 190.476562 326.773438 191.050781 328.519531 189.992188 C 328.769531 189.84375 329.019531 189.644531 329.265625 189.425781 C 329.339844 189.363281 329.414062 189.296875 329.484375 189.226562 C 329.335938 189.121094 329.308594 189.121094 329.097656 188.921875 C 328.542969 188.410156 328.476562 187.335938 328.46875 186.933594 C 328.449219 186.886719 328.425781 186.839844 328.40625 186.792969 C 328.375 186.714844 328.503906 186.679688 328.535156 186.757812 C 328.546875 186.777344 328.554688 186.796875 328.566406 186.816406 C 328.925781 186.988281 330.265625 187.613281 330.414062 187.769531 C 330.535156 187.898438 330.5 188.171875 330.5 188.179688 C 330.660156 188.003906 330.800781 187.847656 330.914062 187.726562 C 331.066406 187.570312 331.242188 187.324219 331.433594 187.019531 C 332.167969 187.257812 333.433594 187.289062 333 186.164062 C 332.871094 185.8125 332.695312 185.445312 332.722656 185.039062 C 332.746094 184.632812 332.949219 184.167969 333.082031 183.761719 C 333.285156 183.285156 333.453125 182.863281 333.558594 182.5625 C 334.214844 180.675781 334.59375 178.617188 334.476562 177.023438 C 334.472656 176.972656 334.464844 176.925781 334.457031 176.878906 C 334.445312 176.972656 334.433594 177.023438 334.433594 177.023438 C 334.433594 177.023438 332.910156 177.976562 331.828125 177.492188 C 331.101562 177.164062 330.296875 177.03125 329.503906 177.023438 C 328.09375 177.007812 327.277344 178.027344 326.144531 178.808594 C 325.382812 179.332031 324.714844 179.941406 324.164062 180.503906 C 323.914062 179.71875 323.429688 179.351562 322.601562 179.691406 C 320.976562 180.359375 321.847656 182.863281 322.527344 184.144531 C 322.527344 184.144531 322.527344 184.148438 322.527344 184.148438 L 322.550781 184.195312 C 321.894531 187.921875 317.972656 189.679688 314.996094 191.390625 C 314.824219 191.492188 314.644531 191.578125 314.464844 191.664062 C 314.59375 191.667969 314.726562 191.671875 314.863281 191.679688 C 314.863281 191.679688 314.859375 191.679688 314.859375 191.679688 C 314.859375 191.679688 316.003906 191.996094 316.558594 192.203125 "/>
<g clip-path="url(#clip4)" clip-rule="nonzero">
<path style=" stroke:none;fill-rule:nonzero;fill:rgb(44.709778%,23.529053%,11.369324%);fill-opacity:1;" d="M 358.613281 214.410156 C 358.402344 214.375 358.132812 214.394531 357.828125 214.449219 C 358.695312 213.832031 358.46875 213.414062 357.472656 213.386719 C 356.335938 213.363281 354.285156 214.210938 354.285156 214.210938 C 354.285156 214.210938 354.222656 214.222656 354.125 214.246094 C 353.28125 214.15625 352.445312 213.359375 352.230469 213.367188 C 352.683594 213.226562 353.035156 213.019531 353.207031 212.769531 C 354.0625 211.53125 352.074219 211.890625 351.550781 211.960938 C 350.535156 212.09375 349.824219 212.078125 349.070312 212.535156 C 348.96875 212.597656 348.410156 212.835938 347.859375 213.136719 C 347.429688 213.375 347 213.652344 346.808594 213.917969 C 346.6875 213.902344 346.566406 213.882812 346.449219 213.867188 C 343.566406 213.457031 341.117188 212.808594 338.707031 212.1875 C 342.390625 207.664062 348.179688 200.058594 348.179688 200.058594 C 348.179688 200.058594 348.710938 200.40625 349.824219 200.609375 C 350.117188 200.664062 350.417969 200.648438 350.71875 200.582031 C 350.71875 200.582031 350.722656 200.582031 350.722656 200.582031 C 350.734375 200.578125 350.789062 200.566406 350.878906 200.542969 C 351.433594 200.40625 353.25 199.953125 353.792969 199.738281 C 354.003906 199.628906 354.160156 199.519531 354.253906 199.40625 C 354.429688 199.191406 354.363281 198.964844 353.984375 198.714844 C 354.308594 198.792969 354.292969 198.425781 354.160156 198.023438 C 354.835938 198.28125 355.417969 198.5 355.855469 198.667969 C 355.8125 198.25 355.648438 197.730469 355.613281 197.523438 C 355.589844 197.414062 355.570312 197.300781 355.554688 197.191406 C 355.515625 196.945312 355.464844 196.675781 355.34375 196.457031 C 355.289062 196.363281 354.945312 196.261719 354.945312 196.261719 C 354.945312 196.261719 354.945312 196.261719 354.667969 195.773438 C 354.535156 195.539062 354.167969 195.1875 353.925781 195.054688 C 353.644531 194.902344 353.160156 194.976562 353.160156 194.976562 C 353.035156 194.777344 352.820312 194.5625 352.632812 194.425781 C 352.324219 194.199219 351.941406 194.277344 351.597656 194.351562 C 351.570312 194.359375 351.324219 194.445312 351.324219 194.445312 C 351.324219 194.441406 350.988281 194.15625 350.835938 194.105469 C 350.371094 193.953125 349.585938 194.144531 349.234375 194.523438 C 349.234375 194.523438 348.605469 195.1875 348.0625 195.695312 C 348.636719 195.914062 349.238281 196.140625 349.839844 196.371094 C 350.527344 196.027344 351.164062 196.128906 351.691406 196.382812 C 351.710938 196.394531 351.730469 196.410156 351.746094 196.421875 C 352.109375 196.699219 352.390625 197.074219 352.667969 197.449219 C 352.9375 197.820312 353.203125 198.191406 353.535156 198.464844 C 353.554688 198.476562 353.566406 198.484375 353.585938 198.5 C 353.378906 198.425781 353.089844 198.40625 352.789062 198.417969 C 352.789062 198.429688 352.785156 198.4375 352.773438 198.441406 C 352.058594 198.621094 351.113281 199.214844 350.421875 198.910156 C 350.226562 198.824219 350.050781 198.667969 349.910156 198.414062 C 349.90625 198.40625 349.90625 198.402344 349.90625 198.398438 C 349.890625 198.375 349.875 198.355469 349.863281 198.332031 C 349.730469 198.136719 349.578125 197.9375 349.453125 197.746094 L 346.597656 196.757812 C 344.511719 198.121094 339.117188 201.6875 335.007812 204.648438 C 334.988281 204.644531 334.972656 204.640625 334.949219 204.640625 C 334.71875 204.617188 334.441406 204.492188 334.140625 204.308594 C 333.125 203.683594 331.859375 202.324219 331.25 201.660156 C 330.664062 201.023438 330.117188 200.339844 329.566406 199.660156 C 329.074219 200.421875 328.558594 201.175781 327.953125 201.839844 C 329 203.742188 329.9375 205.726562 330.675781 207.617188 C 331.089844 208.679688 331.429688 209.707031 331.714844 210.683594 C 333.316406 210.925781 334.980469 211.042969 336.523438 211.527344 C 336.707031 211.585938 336.890625 211.648438 337.070312 211.714844 C 337.140625 211.742188 337.113281 211.851562 337.039062 211.828125 C 335.425781 211.386719 333.769531 211.230469 332.136719 210.921875 C 331.714844 210.839844 331.296875 210.75 330.878906 210.644531 C 330.835938 210.632812 330.835938 210.589844 330.859375 210.5625 C 328.980469 210.0625 327.640625 209.046875 327.53125 208.921875 C 326.765625 208.042969 326.148438 207.035156 325.582031 206.015625 C 325.160156 205.257812 324.789062 204.464844 324.40625 203.679688 C 323.632812 204.421875 322.828125 205.152344 321.914062 205.699219 C 320 206.886719 317.976562 207.746094 315.804688 208.25 C 317.894531 211.3125 320.433594 213.777344 323.417969 215.792969 C 324.628906 216.609375 326.046875 217.664062 327.414062 218.085938 C 327.429688 218.089844 327.445312 218.09375 327.457031 218.097656 C 327.476562 218.101562 327.492188 218.109375 327.511719 218.113281 C 328.714844 218.507812 330.097656 218.613281 331.4375 218.585938 C 333.144531 218.554688 342.976562 219.074219 347.394531 218.558594 C 348.054688 218.480469 349.78125 219.144531 351.027344 219.363281 C 351.941406 219.527344 352.542969 219.695312 353.414062 219.574219 C 354.015625 219.488281 354.316406 219.375 354.902344 219.222656 C 355.710938 219.011719 356.683594 218.519531 356.613281 218.113281 C 356.605469 218.070312 356.582031 218.03125 356.550781 217.988281 C 356.535156 217.96875 356.519531 217.949219 356.496094 217.929688 C 356.523438 217.921875 356.554688 217.910156 356.582031 217.902344 C 357.636719 217.632812 359.191406 216.484375 358.085938 216.203125 C 357.914062 216.160156 357.6875 216.144531 357.429688 216.144531 C 358.4375 215.722656 359.667969 214.601562 358.613281 214.410156 "/>
</g>
<path style=" stroke:none;fill-rule:nonzero;fill:rgb(8.239746%,7.839966%,6.669617%);fill-opacity:1;" d="M 357.816406 208.988281 C 357.972656 208.792969 357.335938 208.738281 357.304688 208.742188 C 357.15625 208.757812 357.011719 208.800781 356.875 208.875 C 356.675781 208.984375 356.488281 209.113281 356.328125 209.28125 C 356.246094 209.367188 356.152344 209.46875 356.066406 209.582031 C 356.074219 209.578125 356.082031 209.578125 356.089844 209.578125 C 356.597656 209.523438 357.46875 209.425781 357.816406 208.988281 "/>
<path style=" stroke:none;fill-rule:nonzero;fill:rgb(8.239746%,7.839966%,6.669617%);fill-opacity:1;" d="M 358.761719 212.394531 C 358.316406 212.378906 357.820312 212.28125 357.609375 211.84375 C 357.472656 211.558594 357.570312 211.214844 357.699219 210.917969 C 356.988281 211.277344 355.652344 211.75 355.496094 210.730469 C 355.449219 210.445312 355.527344 210.117188 355.6875 209.804688 C 354.917969 209.855469 354.136719 209.820312 353.378906 209.816406 C 352.339844 209.8125 351.304688 209.777344 350.273438 209.636719 C 350.175781 209.621094 350.199219 209.449219 350.296875 209.464844 C 351.636719 209.628906 352.988281 209.625 354.335938 209.617188 C 354.824219 209.617188 355.316406 209.628906 355.804688 209.597656 C 356.15625 209.039062 356.75 208.582031 357.304688 208.59375 C 357.441406 208.59375 358.203125 208.695312 357.992188 209.007812 C 357.648438 209.515625 356.863281 209.664062 356.304688 209.742188 C 356.175781 209.761719 356.046875 209.777344 355.914062 209.789062 C 355.773438 210.011719 355.667969 210.253906 355.679688 210.496094 C 355.746094 211.664062 357.359375 210.882812 357.886719 210.570312 C 357.984375 210.511719 358.078125 210.625 358.035156 210.714844 C 357.898438 210.992188 357.640625 211.503906 357.863281 211.804688 C 358.078125 212.09375 358.457031 212.148438 358.785156 212.226562 C 358.878906 212.246094 358.859375 212.398438 358.761719 212.394531 Z M 358.398438 206.792969 C 356.167969 207.167969 353.933594 207.691406 351.703125 208.136719 C 350.703125 208.285156 345.933594 209.257812 345.703125 210.597656 C 345.546875 211.347656 347.316406 212.613281 347.777344 213.0625 C 347.804688 213.089844 347.832031 213.113281 347.859375 213.136719 C 348.410156 212.835938 348.96875 212.59375 349.070312 212.535156 C 349.824219 212.078125 350.535156 212.09375 351.550781 211.960938 C 352.074219 211.890625 354.0625 211.53125 353.207031 212.769531 C 353.035156 213.019531 352.683594 213.226562 352.230469 213.367188 C 352.445312 213.359375 353.28125 214.15625 354.125 214.246094 C 354.222656 214.222656 354.285156 214.210938 354.285156 214.210938 C 354.285156 214.210938 356.335938 213.363281 357.472656 213.386719 C 358.46875 213.410156 358.695312 213.832031 357.828125 214.449219 C 358.132812 214.394531 358.402344 214.375 358.613281 214.410156 C 359.667969 214.601562 358.4375 215.722656 357.429688 216.144531 C 357.6875 216.140625 357.914062 216.15625 358.085938 216.199219 C 359.191406 216.484375 357.636719 217.632812 356.582031 217.902344 C 356.554688 217.910156 356.523438 217.917969 356.496094 217.925781 C 356.519531 217.949219 356.535156 217.96875 356.550781 217.988281 L 360.078125 217.988281 L 360.078125 206.574219 C 359.5625 206.535156 359.042969 206.648438 358.398438 206.792969 "/>
<path style=" stroke:none;fill-rule:nonzero;fill:rgb(8.239746%,7.839966%,6.669617%);fill-opacity:1;" d="M 351.746094 196.421875 C 351.730469 196.410156 351.710938 196.394531 351.691406 196.382812 C 351.164062 196.128906 350.527344 196.027344 349.839844 196.371094 C 350.796875 196.738281 351.769531 197.109375 352.667969 197.449219 C 352.390625 197.074219 352.109375 196.699219 351.746094 196.421875 "/>
<path style=" stroke:none;fill-rule:nonzero;fill:rgb(8.239746%,7.839966%,6.669617%);fill-opacity:1;" d="M 349.90625 198.398438 C 349.90625 198.402344 349.90625 198.40625 349.910156 198.414062 C 350.050781 198.667969 350.226562 198.824219 350.421875 198.910156 C 351.113281 199.214844 352.058594 198.621094 352.773438 198.441406 C 352.785156 198.4375 352.789062 198.429688 352.789062 198.417969 C 352.789062 198.40625 352.78125 198.398438 352.765625 198.398438 C 352.460938 198.402344 352.167969 198.492188 351.890625 198.589844 L 349.453125 197.746094 C 349.578125 197.941406 349.730469 198.136719 349.863281 198.332031 C 349.875 198.355469 349.890625 198.375 349.90625 198.398438 "/>
<path style=" stroke:none;fill-rule:nonzero;fill:rgb(8.239746%,7.839966%,6.669617%);fill-opacity:1;" d="M 353.738281 197.199219 C 353.761719 197.234375 353.816406 197.203125 353.792969 197.164062 C 353.230469 196.089844 352.476562 195.070312 351.386719 194.492188 C 351.34375 194.46875 351.3125 194.527344 351.351562 194.554688 C 352.34375 195.285156 353.035156 196.199219 353.738281 197.199219 "/>
<path style=" stroke:none;fill-rule:nonzero;fill:rgb(8.239746%,7.839966%,6.669617%);fill-opacity:1;" d="M 354.984375 197.9375 C 355.007812 197.964844 355.058594 197.949219 355.046875 197.914062 C 354.671875 196.898438 354.136719 195.789062 353.269531 195.121094 C 353.25 195.105469 353.226562 195.136719 353.242188 195.152344 C 354.046875 195.964844 354.359375 197.015625 354.984375 197.9375 "/>
<path style=" stroke:none;fill-rule:nonzero;fill:rgb(8.239746%,7.839966%,6.669617%);fill-opacity:1;" d="M 355.105469 196.746094 C 355.210938 196.945312 355.292969 197.214844 355.445312 197.378906 C 355.46875 197.402344 355.507812 197.382812 355.511719 197.351562 C 355.515625 197.140625 355.335938 196.902344 355.226562 196.734375 C 355.140625 196.605469 355.054688 196.476562 354.964844 196.355469 C 354.9375 196.316406 354.878906 196.347656 354.902344 196.390625 C 354.972656 196.507812 355.039062 196.625 355.105469 196.746094 "/>
<path style=" stroke:none;fill-rule:nonzero;fill:rgb(8.239746%,7.839966%,6.669617%);fill-opacity:1;" d="M 331.25 201.660156 C 331.859375 202.324219 333.125 203.683594 334.140625 204.308594 C 334.941406 203.488281 335.175781 202.515625 334.59375 201.195312 C 333.609375 198.859375 330.835938 198.019531 329.632812 195.953125 C 328.628906 194.1875 328.894531 191.390625 329.257812 189.480469 C 329.261719 189.460938 329.261719 189.445312 329.265625 189.425781 C 329.019531 189.644531 328.769531 189.839844 328.519531 189.992188 C 326.773438 191.050781 325.1875 190.476562 323.320312 190.433594 C 322.488281 190.410156 321.597656 191.496094 321.105469 192.75 C 323.054688 193.574219 328.03125 196.097656 330.675781 197.945312 C 330.296875 198.496094 329.9375 199.082031 329.5625 199.660156 C 330.117188 200.339844 330.664062 201.023438 331.25 201.660156 "/>
<path style=" stroke:none;fill-rule:nonzero;fill:rgb(8.239746%,7.839966%,6.669617%);fill-opacity:1;" d="M 328.566406 186.820312 C 328.554688 186.796875 328.546875 186.777344 328.535156 186.757812 C 328.503906 186.679688 328.375 186.714844 328.40625 186.792969 C 328.425781 186.839844 328.449219 186.886719 328.46875 186.933594 C 328.777344 187.597656 329.34375 188.25 330.027344 188.6875 C 330.066406 188.644531 330.109375 188.601562 330.148438 188.558594 C 329.460938 188.175781 328.894531 187.59375 328.566406 186.820312 "/>
<path style=" stroke:none;fill-rule:nonzero;fill:rgb(8.239746%,7.839966%,6.669617%);fill-opacity:1;" d="M 333.1875 181.664062 C 332.480469 180.398438 330.746094 179.777344 329.382812 180.050781 C 329.328125 180.0625 329.335938 180.136719 329.382812 180.152344 C 330.039062 180.382812 330.734375 180.335938 331.378906 180.628906 C 332.011719 180.917969 332.417969 181.519531 333.023438 181.832031 C 333.128906 181.886719 333.25 181.773438 333.1875 181.664062 "/>
<path style=" stroke:none;fill-rule:nonzero;fill:rgb(8.239746%,7.839966%,6.669617%);fill-opacity:1;" d="M 331.449219 182.734375 C 331.503906 182.71875 331.550781 182.726562 331.609375 182.789062 C 331.683594 182.863281 331.710938 183.089844 331.539062 183.003906 C 331.46875 182.96875 331.40625 182.8125 331.449219 182.734375 Z M 330.863281 182.34375 C 330.699219 182.492188 330.617188 182.707031 330.671875 182.914062 C 330.710938 183.175781 330.910156 183.398438 331.1875 183.457031 C 331.394531 183.503906 331.550781 183.449219 331.667969 183.347656 C 331.6875 183.335938 331.699219 183.324219 331.714844 183.308594 C 331.742188 183.28125 331.769531 183.257812 331.792969 183.222656 C 331.808594 183.199219 331.824219 183.171875 331.835938 183.144531 C 331.855469 183.207031 331.875 183.265625 331.90625 183.324219 C 331.957031 183.417969 332.089844 183.382812 332.121094 183.292969 C 332.304688 182.761719 331.816406 182.214844 331.378906 181.980469 C 330.703125 181.617188 329.953125 182.296875 329.234375 182.03125 C 329.191406 182.015625 329.167969 182.078125 329.203125 182.101562 C 329.539062 182.320312 329.972656 182.261719 330.355469 182.203125 C 330.640625 182.160156 330.882812 182.136719 331.105469 182.195312 C 331.027344 182.21875 330.957031 182.257812 330.898438 182.3125 C 330.886719 182.324219 330.875 182.332031 330.863281 182.34375 "/>
<path style=" stroke:none;fill-rule:nonzero;fill:rgb(8.239746%,7.839966%,6.669617%);fill-opacity:1;" d="M 354.171875 215.832031 C 354.519531 215.757812 354.863281 215.636719 355.203125 215.523438 C 355.988281 215.265625 356.839844 215.023438 357.550781 214.59375 C 357.59375 214.566406 357.558594 214.507812 357.511719 214.527344 C 356.808594 214.859375 356.027344 215.082031 355.289062 215.324219 C 354.964844 215.429688 354.640625 215.535156 354.3125 215.621094 C 353.699219 215.789062 353.210938 215.492188 352.628906 215.398438 C 352.542969 215.382812 352.507812 215.5 352.59375 215.527344 C 353.089844 215.714844 353.628906 215.945312 354.171875 215.832031 "/>
<path style=" stroke:none;fill-rule:nonzero;fill:rgb(8.239746%,7.839966%,6.669617%);fill-opacity:1;" d="M 352.429688 216.734375 C 353.945312 217.738281 355.644531 216.84375 357.117188 216.234375 C 357.160156 216.214844 357.144531 216.144531 357.097656 216.160156 C 356.375 216.347656 355.679688 216.636719 354.96875 216.867188 C 354.070312 217.160156 353.34375 216.933594 352.476562 216.625 C 352.40625 216.601562 352.375 216.699219 352.429688 216.734375 "/>
<path style=" stroke:none;fill-rule:nonzero;fill:rgb(8.239746%,7.839966%,6.669617%);fill-opacity:1;" d="M 356.328125 217.882812 C 355.636719 218.019531 354.984375 218.289062 354.289062 218.417969 C 353.675781 218.53125 352.976562 218.207031 352.40625 217.988281 C 352.378906 217.980469 352.359375 218.023438 352.386719 218.039062 C 352.90625 218.300781 353.484375 218.542969 354.070312 218.550781 C 354.824219 218.566406 355.628906 218.148438 356.347656 217.960938 C 356.398438 217.949219 356.375 217.875 356.328125 217.882812 "/>
<path style=" stroke:none;fill-rule:nonzero;fill:rgb(8.239746%,7.839966%,6.669617%);fill-opacity:1;" d="M 348.265625 218.445312 C 346.914062 217.898438 346.160156 215.964844 346.71875 214.636719 C 346.753906 214.558594 346.640625 214.488281 346.605469 214.570312 C 346.015625 215.894531 346.6875 218.1875 348.230469 218.582031 C 348.320312 218.605469 348.347656 218.476562 348.265625 218.445312 "/>
<path style=" stroke:none;fill-rule:nonzero;fill:rgb(8.239746%,7.839966%,6.669617%);fill-opacity:1;" d="M 337.070312 211.714844 C 336.890625 211.644531 336.707031 211.585938 336.523438 211.527344 C 334.980469 211.042969 333.316406 210.925781 331.714844 210.683594 C 331.441406 210.640625 331.171875 210.597656 330.90625 210.546875 C 330.882812 210.542969 330.871094 210.550781 330.859375 210.5625 C 330.835938 210.589844 330.835938 210.632812 330.878906 210.640625 C 331.296875 210.75 331.714844 210.839844 332.136719 210.921875 C 333.769531 211.230469 335.425781 211.386719 337.039062 211.828125 C 337.113281 211.851562 337.140625 211.742188 337.070312 211.714844 "/>
<path style=" stroke:none;fill-rule:nonzero;fill:rgb(8.239746%,7.839966%,6.669617%);fill-opacity:1;" d="M 322.527344 184.148438 C 322.527344 184.148438 322.527344 184.144531 322.527344 184.144531 C 321.847656 182.863281 320.976562 180.359375 322.601562 179.695312 C 323.429688 179.351562 323.914062 179.71875 324.164062 180.503906 C 324.714844 179.941406 325.382812 179.332031 326.144531 178.808594 C 327.277344 178.027344 328.09375 177.007812 329.503906 177.023438 C 330.296875 177.03125 331.101562 177.164062 331.828125 177.492188 C 332.910156 177.976562 334.433594 177.023438 334.433594 177.023438 C 334.433594 177.023438 334.445312 176.972656 334.457031 176.878906 C 334.515625 176.523438 334.632812 175.527344 334.433594 174.300781 C 334.445312 174.214844 334.449219 174.140625 334.4375 174.074219 C 333.832031 170.878906 332.269531 169.707031 331.515625 168.929688 C 330.378906 167.769531 328.558594 167.027344 326.539062 166.695312 C 323.558594 166.207031 320.238281 166.523438 318.59375 167.199219 C 311.5625 170.230469 309.960938 179.414062 307.558594 185.925781 C 306.222656 189.492188 303.375 192.167969 301.859375 195.644531 C 300.300781 199.375 302.535156 203.695312 305.035156 206.472656 C 305.574219 203.875 306.289062 201.335938 307.226562 199.429688 C 307.972656 197.921875 308.707031 196.683594 309.398438 195.675781 C 309.445312 195.605469 309.492188 195.539062 309.539062 195.472656 C 309.652344 195.335938 309.761719 195.179688 309.878906 194.996094 C 310.375 194.320312 310.839844 193.765625 311.25 193.316406 C 311.515625 193.101562 311.804688 192.914062 312.152344 192.707031 C 312.898438 192.28125 313.699219 192.023438 314.464844 191.664062 C 314.644531 191.578125 314.824219 191.492188 314.996094 191.390625 C 317.972656 189.679688 321.894531 187.921875 322.550781 184.195312 L 322.527344 184.148438 "/>
<path style=" stroke:none;fill-rule:nonzero;fill:rgb(8.239746%,7.839966%,6.669617%);fill-opacity:1;" d="M 323.25 182.632812 C 323.613281 181.863281 323.519531 180.988281 323.226562 180.210938 C 323.195312 180.128906 323.070312 180.160156 323.09375 180.246094 C 323.304688 181.023438 323.375 181.800781 323.089844 182.566406 C 323.058594 182.660156 323.207031 182.722656 323.25 182.632812 "/>
</g>
</svg>